{
.appVersion = "1357";
copyright = "Copyright 2018-2021 Google Inc. All Rights Reserved.";
customParameters = (
{
name = glyphOrder;
value = (
.notdef,
NULL,
uni000D,
CR,
space,
uni00A0,
uni200C,
uni200D,
uni25CC,
uniA830,
uniA831,
uniA832,
uniA833,
uniA834,
uniA835,
uniA836,
uniA837,
uniA838,
uniA839,
u11150,
u11151,
u11152,
u11153,
u11154,
u11155,
u11156,
u11157,
u11158,
u11159,
u1115A,
u1115B,
u1115C,
u1115D,
u1115E,
u1115F,
u11160,
u11161,
u11162,
u11163,
u11164,
u11165,
u11166,
u11167,
u11168,
u11169,
u1116A,
u1116B,
u1116C,
u1116D,
u1116E,
u1116F,
u11170,
u11171,
u11172,
u11173,
u11174,
u11175,
u11176,
uni0966,
uni0967,
uni0968,
uni0969,
uni096A,
uni096B,
uni096C,
uni096D,
uni096E,
uni096F,
uni0964,
uni0965
);
},
{
name = unicodeRanges;
value = (
0,
1,
15,
31,
45,
57
);
},
{
name = "Has WWS Names";
value = 1;
},
{
name = fsType;
value = (
);
},
{
name = codePageRanges;
value = (
1252
);
},
{
name = description;
value = "Designed by Monotype design team.";
},
{
name = license;
value = "This Font Software is licensed under the SIL Open Font License, Version 1.1. This Font Software is distributed on an \"AS IS\" BASIS, WITHOUT WARRANTIES OR CONDITIONS OF ANY KIND, either express or implied. See the SIL Open Font License for the specific language, permissions and limitations governing your use of this Font Software.";
},
{
name = licenseURL;
value = "http://scripts.sil.org/OFL";
},
{
name = vendorID;
value = GOOG;
},
{
name = trademark;
value = "Noto is a trademark of Google Inc.";
},
{
name = versionString;
value = "Version 2.002";
}
);
date = "2021-12-16 18:45:33 +0000";
designer = "Monotype Design Team";
designerURL = "http://www.monotype.com/studio";
disablesAutomaticAlignment = 1;
familyName = "Noto Sans Mahajani";
featurePrefixes = (
{
code = "languagesystem deva dflt;\012languagesystem mahj dflt;\012";
name = Languagesystems;
}
);
features = (
{
code = "# Automatic Code Start\012";
name = mark;
}
);
fontMaster = (
{
alignmentZones = (
"{1069, 15}",

glyphs = (
{
glyphname = .notdef;
lastChange = "2018-08-07 18:02:59 +0000";
layers = (
{
layerId = UUID0;
paths = (
{
closed = 1;
nodes = (
"506 0 LINE",
"506 714 LINE",
"95 714 LINE",
"95 0 LINE"
);
},
{
closed = 1;
nodes = (
"146 663 LINE",
"455 663 LINE",
"455 51 LINE",
"146 51 LINE"
);
}
);
width = 600;
}
);
category = Letter;
},
{
glyphname = uni25CC;
lastChange = "2018-08-07 18:03:19 +0000";
layers = (
{
anchors = (
{
name = Anchor2;
position = "{297, -40}";
}
);
layerId = UUID0;
paths = (
{
closed = 1;
nodes = (
"469 423 OFFCURVE",
"481 435 OFFCURVE",
"481 449 CURVE SMOOTH",
"481 463 OFFCURVE",
"469 475 OFFCURVE",
"455 475 CURVE SMOOTH",
"441 475 OFFCURVE",
"429 463 OFFCURVE",
"429 449 CURVE SMOOTH",
"429 435 OFFCURVE",
"441 423 OFFCURVE",
"455 423 CURVE SMOOTH"
);
},
{
closed = 1;
nodes = (
"153 107 OFFCURVE",
"165 119 OFFCURVE",
"165 133 CURVE SMOOTH",
"165 147 OFFCURVE",
"153 159 OFFCURVE",
"139 159 CURVE SMOOTH",
"125 159 OFFCURVE",
"113 147 OFFCURVE",
"113 133 CURVE SMOOTH",
"113 119 OFFCURVE",
"125 107 OFFCURVE",
"139 107 CURVE SMOOTH"
);
},
{
closed = 1;
nodes = (
"227 60 OFFCURVE",
"239 72 OFFCURVE",
"239 86 CURVE SMOOTH",
"239 100 OFFCURVE",
"227 112 OFFCURVE",
"213 112 CURVE SMOOTH",
"199 112 OFFCURVE",
"187 100 OFFCURVE",
"187 86 CURVE SMOOTH",
"187 72 OFFCURVE",
"199 60 OFFCURVE",
"213 60 CURVE SMOOTH"
);
},
{
closed = 1;
nodes = (
"106 181 OFFCURVE",
"118 193 OFFCURVE",
"118 207 CURVE SMOOTH",
"118 221 OFFCURVE",
"106 233 OFFCURVE",
"92 233 CURVE SMOOTH",
"78 233 OFFCURVE",
"66 221 OFFCURVE",
"66 207 CURVE SMOOTH",
"66 193 OFFCURVE",
"78 181 OFFCURVE",
"92 181 CURVE SMOOTH"
);
},
{
closed = 1;
nodes = (
"311 42 OFFCURVE",
"323 54 OFFCURVE",
"323 68 CURVE SMOOTH",
"323 82 OFFCURVE",
"311 94 OFFCURVE",
"297 94 CURVE SMOOTH",
"283 94 OFFCURVE",
"271 82 OFFCURVE",
"271 68 CURVE SMOOTH",
"271 54 OFFCURVE",
"283 42 OFFCURVE",
"297 42 CURVE SMOOTH"
);
},
{
closed = 1;
nodes = (
"88 265 OFFCURVE",
"100 277 OFFCURVE",
"100 291 CURVE SMOOTH",
"100 305 OFFCURVE",
"88 317 OFFCURVE",
"74 317 CURVE SMOOTH",
"60 317 OFFCURVE",
"48 305 OFFCURVE",
"48 291 CURVE SMOOTH",
"48 277 OFFCURVE",
"60 265 OFFCURVE",
"74 265 CURVE SMOOTH"
);
},
{
closed = 1;
nodes = (
"395 60 OFFCURVE",
"407 72 OFFCURVE",
"407 86 CURVE SMOOTH",
"407 100 OFFCURVE",
"395 112 OFFCURVE",
"381 112 CURVE SMOOTH",
"367 112 OFFCURVE",
"355 100 OFFCURVE",
"355 86 CURVE SMOOTH",
"355 72 OFFCURVE",
"367 60 OFFCURVE",
"381 60 CURVE SMOOTH"
);
},
{
closed = 1;
nodes = (
"106 349 OFFCURVE",
"118 361 OFFCURVE",
"118 375 CURVE SMOOTH",
"118 389 OFFCURVE",
"106 401 OFFCURVE",
"92 401 CURVE SMOOTH",
"78 401 OFFCURVE",
"66 389 OFFCURVE",
"66 375 CURVE SMOOTH",
"66 361 OFFCURVE",
"78 349 OFFCURVE",
"92 349 CURVE SMOOTH"
);
},
{
closed = 1;
nodes = (
"153 423 OFFCURVE",
"165 435 OFFCURVE",
"165 449 CURVE SMOOTH",
"165 463 OFFCURVE",
"153 475 OFFCURVE",
"139 475 CURVE SMOOTH",
"125 475 OFFCURVE",
"113 463 OFFCURVE",
"113 449 CURVE SMOOTH",
"113 435 OFFCURVE",
"125 423 OFFCURVE",
"139 423 CURVE SMOOTH"
);
},
{
closed = 1;
nodes = (
"469 107 OFFCURVE",
"481 119 OFFCURVE",
"481 133 CURVE SMOOTH",
"481 147 OFFCURVE",
"469 159 OFFCURVE",
"455 159 CURVE SMOOTH",
"441 159 OFFCURVE",
"429 147 OFFCURVE",
"429 133 CURVE SMOOTH",
"429 119 OFFCURVE",
"441 107 OFFCURVE",
"455 107 CURVE SMOOTH"
);
},
{
closed = 1;
nodes = (
"227 470 OFFCURVE",
"239 482 OFFCURVE",
"239 496 CURVE SMOOTH",
"239 510 OFFCURVE",
"227 522 OFFCURVE",
"213 522 CURVE SMOOTH",
"199 522 OFFCURVE",
"187 510 OFFCURVE",
"187 496 CURVE SMOOTH",
"187 482 OFFCURVE",
"199 470 OFFCURVE",
"213 470 CURVE SMOOTH"
);
},
{
closed = 1;
nodes = (
"516 181 OFFCURVE",
"528 193 OFFCURVE",
"528 207 CURVE SMOOTH",
"528 221 OFFCURVE",
"516 233 OFFCURVE",
"502 233 CURVE SMOOTH",
"488 233 OFFCURVE",
"476 221 OFFCURVE",
"476 207 CURVE SMOOTH",
"476 193 OFFCURVE",
"488 181 OFFCURVE",
"502 181 CURVE SMOOTH"
);
},
{
closed = 1;
nodes = (
"311 488 OFFCURVE",
"323 500 OFFCURVE",
"323 514 CURVE SMOOTH",
"323 528 OFFCURVE",
"311 540 OFFCURVE",
"297 540 CURVE SMOOTH",
"283 540 OFFCURVE",
"271 528 OFFCURVE",
"271 514 CURVE SMOOTH",
"271 500 OFFCURVE",
"283 488 OFFCURVE",
"297 488 CURVE SMOOTH"
);
},
{
closed = 1;
nodes = (
"534 265 OFFCURVE",
"546 277 OFFCURVE",
"546 291 CURVE SMOOTH",
"546 305 OFFCURVE",
"534 317 OFFCURVE",
"520 317 CURVE SMOOTH",
"506 317 OFFCURVE",
"494 305 OFFCURVE",
"494 291 CURVE SMOOTH",
"494 277 OFFCURVE",
"506 265 OFFCURVE",
"520 265 CURVE SMOOTH"
);
},
{
closed = 1;
nodes = (
"395 470 OFFCURVE",
"407 482 OFFCURVE",
"407 496 CURVE SMOOTH",
"407 510 OFFCURVE",
"395 522 OFFCURVE",
"381 522 CURVE SMOOTH",
"367 522 OFFCURVE",
"355 510 OFFCURVE",
"355 496 CURVE SMOOTH",
"355 482 OFFCURVE",
"367 470 OFFCURVE",
"381 470 CURVE SMOOTH"
);
},
{
closed = 1;
nodes = (
"516 349 OFFCURVE",
"528 361 OFFCURVE",
"528 375 CURVE SMOOTH",
"528 389 OFFCURVE",
"516 401 OFFCURVE",
"502 401 CURVE SMOOTH",
"488 401 OFFCURVE",
"476 389 OFFCURVE",
"476 375 CURVE SMOOTH",
"476 361 OFFCURVE",
"488 349 OFFCURVE",
"502 349 CURVE SMOOTH"
);
}
);
width = 594;
}
);
unicode = 25CC;
category = Letter;
},
{
glyphname = uniA830;
lastChange = "2018-08-07 18:02:59 +0000";
layers = (
{
layerId = UUID0;
paths = (
{
closed = 1;
nodes = (
"138 -10 OFFCURVE",
"159 1 OFFCURVE",
"159 18 CURVE SMOOTH",
"159 577 LINE SMOOTH",
"159 594 OFFCURVE",
"138 605 OFFCURVE",
"118 605 CURVE SMOOTH",
"98 605 OFFCURVE",
"78 594 OFFCURVE",
"78 577 CURVE SMOOTH",
"78 18 LINE SMOOTH",
"78 1 OFFCURVE",
"98 -10 OFFCURVE",
"118 -10 CURVE SMOOTH"
);
}
);
width = 237;
}
);
unicode = A830;
category = Letter;
},
{
glyphname = uniA831;
lastChange = "2018-08-07 18:02:59 +0000";
layers = (
{
layerId = UUID0;
paths = (
{
closed = 1;
nodes = (
"338 -10 OFFCURVE",
"359 1 OFFCURVE",
"359 18 CURVE SMOOTH",
"359 577 LINE SMOOTH",
"359 594 OFFCURVE",
"338 605 OFFCURVE",
"318 605 CURVE SMOOTH",
"298 605 OFFCURVE",
"278 594 OFFCURVE",
"278 577 CURVE SMOOTH",
"278 18 LINE SMOOTH",
"278 1 OFFCURVE",
"298 -10 OFFCURVE",
"318 -10 CURVE SMOOTH"
);
},
{
closed = 1;
nodes = (
"138 -10 OFFCURVE",
"159 1 OFFCURVE",
"159 18 CURVE SMOOTH",
"159 577 LINE SMOOTH",
"159 594 OFFCURVE",
"138 605 OFFCURVE",
"118 605 CURVE SMOOTH",
"98 605 OFFCURVE",
"78 594 OFFCURVE",
"78 577 CURVE SMOOTH",
"78 18 LINE SMOOTH",
"78 1 OFFCURVE",
"98 -10 OFFCURVE",
"118 -10 CURVE SMOOTH"
);
}
);
width = 437;
}
);
unicode = A831;
category = Letter;
},
{
glyphname = uniA832;
lastChange = "2018-08-07 18:02:59 +0000";
layers = (
{
layerId = UUID0;
paths = (
{
closed = 1;
nodes = (
"538 -10 OFFCURVE",
"559 1 OFFCURVE",
"559 18 CURVE SMOOTH",
"559 577 LINE SMOOTH",
"559 594 OFFCURVE",
"538 605 OFFCURVE",
"518 605 CURVE SMOOTH",
"498 605 OFFCURVE",
"478 594 OFFCURVE",
"478 577 CURVE SMOOTH",
"478 18 LINE SMOOTH",
"478 1 OFFCURVE",
"498 -10 OFFCURVE",
"518 -10 CURVE SMOOTH"
);
},
{
closed = 1;
nodes = (
"138 -10 OFFCURVE",
"159 1 OFFCURVE",
"159 18 CURVE SMOOTH",
"159 577 LINE SMOOTH",
"159 594 OFFCURVE",
"138 605 OFFCURVE",
"118 605 CURVE SMOOTH",
"98 605 OFFCURVE",
"78 594 OFFCURVE",
"78 577 CURVE SMOOTH",
"78 18 LINE SMOOTH",
"78 1 OFFCURVE",
"98 -10 OFFCURVE",
"118 -10 CURVE SMOOTH"
);
},
{
closed = 1;
nodes = (
"338 -10 OFFCURVE",
"359 1 OFFCURVE",
"359 18 CURVE SMOOTH",
"359 577 LINE SMOOTH",
"359 594 OFFCURVE",
"338 605 OFFCURVE",
"318 605 CURVE SMOOTH",
"298 605 OFFCURVE",
"278 594 OFFCURVE",
"278 577 CURVE SMOOTH",
"278 18 LINE SMOOTH",
"278 1 OFFCURVE",
"298 -10 OFFCURVE",
"318 -10 CURVE SMOOTH"
);
}
);
width = 637;
}
);
unicode = A832;
category = Letter;
},
{
glyphname = uniA833;
lastChange = "2018-08-07 18:02:59 +0000";
layers = (
{
layerId = UUID0;
paths = (
{
closed = 1;
nodes = (
"73 393 OFFCURVE",
"75 393 OFFCURVE",
"78 394 CURVE SMOOTH",
"565 518 LINE SMOOTH",
"578 521 OFFCURVE",
"584 539 OFFCURVE",
"584 554 CURVE SMOOTH",
"584 575 OFFCURVE",
"569 600 OFFCURVE",
"550 600 CURVE SMOOTH",
"549 600 OFFCURVE",
"548 600 OFFCURVE",
"544 599 CURVE SMOOTH",
"57 475 LINE SMOOTH",
"45 472 OFFCURVE",
"38 458 OFFCURVE",
"38 443 CURVE SMOOTH",
"38 422 OFFCURVE",
"53 393 OFFCURVE",
"72 393 CURVE SMOOTH"
);
}
);
width = 622;
}
);
unicode = A833;
category = Letter;
},
{
glyphname = uniA834;
lastChange = "2018-08-07 18:02:59 +0000";
layers = (
{
layerId = UUID0;
paths = (
{
closed = 1;
nodes = (
"73 393 OFFCURVE",
"74 393 OFFCURVE",
"78 394 CURVE SMOOTH",
"565 518 LINE SMOOTH",
"578 521 OFFCURVE",
"584 539 OFFCURVE",
"584 554 CURVE SMOOTH",
"584 575 OFFCURVE",
"569 600 OFFCURVE",
"550 600 CURVE SMOOTH",
"549 600 OFFCURVE",
"548 600 OFFCURVE",
"544 599 CURVE SMOOTH",
"57 475 LINE SMOOTH",
"45 472 OFFCURVE",
"38 458 OFFCURVE",
"38 443 CURVE SMOOTH",
"38 422 OFFCURVE",
"53 393 OFFCURVE",
"72 393 CURVE SMOOTH"
);
},
{
closed = 1;
nodes = (
"73 203 OFFCURVE",
"74 203 OFFCURVE",
"78 204 CURVE SMOOTH",
"565 328 LINE SMOOTH",
"578 331 OFFCURVE",
"584 349 OFFCURVE",
"584 364 CURVE SMOOTH",
"584 385 OFFCURVE",
"569 410 OFFCURVE",
"550 410 CURVE SMOOTH",
"549 410 OFFCURVE",
"548 410 OFFCURVE",
"544 409 CURVE SMOOTH",
"57 285 LINE SMOOTH",
"45 282 OFFCURVE",
"38 268 OFFCURVE",
"38 253 CURVE SMOOTH",
"38 232 OFFCURVE",
"53 203 OFFCURVE",
"72 203 CURVE SMOOTH"
);
}
);
width = 622;
}
);
unicode = A834;
category = Letter;
},
{
glyphname = uniA835;
lastChange = "2018-08-07 18:02:59 +0000";
layers = (
{
layerId = UUID0;
paths = (
{
closed = 1;
nodes = (
"73 393 OFFCURVE",
"74 393 OFFCURVE",
"78 394 CURVE SMOOTH",
"565 518 LINE SMOOTH",
"578 521 OFFCURVE",
"584 539 OFFCURVE",
"584 554 CURVE SMOOTH",
"584 575 OFFCURVE",
"569 600 OFFCURVE",
"550 600 CURVE SMOOTH",
"549 600 OFFCURVE",
"548 600 OFFCURVE",
"544 599 CURVE SMOOTH",
"57 475 LINE SMOOTH",
"45 472 OFFCURVE",
"38 458 OFFCURVE",
"38 443 CURVE SMOOTH",
"38 422 OFFCURVE",
"53 393 OFFCURVE",
"72 393 CURVE SMOOTH"
);
},
{
closed = 1;
nodes = (
"73 -7 OFFCURVE",
"74 -7 OFFCURVE",
"78 -6 CURVE SMOOTH",
"565 118 LINE SMOOTH",
"578 121 OFFCURVE",
"584 139 OFFCURVE",
"584 154 CURVE SMOOTH",
"584 175 OFFCURVE",
"569 200 OFFCURVE",
"550 200 CURVE SMOOTH",
"549 200 OFFCURVE",
"548 200 OFFCURVE",
"544 199 CURVE SMOOTH",
"57 75 LINE SMOOTH",
"45 72 OFFCURVE",
"38 58 OFFCURVE",
"38 43 CURVE SMOOTH",
"38 22 OFFCURVE",
"53 -7 OFFCURVE",
"72 -7 CURVE SMOOTH"
);
},
{
closed = 1;
nodes = (
"73 193 OFFCURVE",
"74 193 OFFCURVE",
"78 194 CURVE SMOOTH",
"565 318 LINE SMOOTH",
"578 321 OFFCURVE",
"584 339 OFFCURVE",
"584 354 CURVE SMOOTH",
"584 375 OFFCURVE",
"569 400 OFFCURVE",
"550 400 CURVE SMOOTH",
"549 400 OFFCURVE",
"548 400 OFFCURVE",
"544 399 CURVE SMOOTH",
"57 275 LINE SMOOTH",
"45 272 OFFCURVE",
"38 258 OFFCURVE",
"38 243 CURVE SMOOTH",
"38 222 OFFCURVE",
"53 193 OFFCURVE",
"72 193 CURVE SMOOTH"
);
}
);
width = 622;
}
);
unicode = A835;
category = Letter;
},
{
glyphname = uniA836;
lastChange = "2018-08-07 18:02:59 +0000";
layers = (
{
layerId = UUID0;
paths = (
{
closed = 1;
nodes = (
"327 167 OFFCURVE",
"393 232 OFFCURVE",
"393 321 CURVE SMOOTH",
"393 408 OFFCURVE",
"328 473 OFFCURVE",
"230 473 CURVE SMOOTH",
"133 473 OFFCURVE",
"67 406 OFFCURVE",
"67 321 CURVE SMOOTH",
"67 229 OFFCURVE",
"135 167 OFFCURVE",
"230 167 CURVE SMOOTH"
);
},
{
closed = 1;
nodes = (
"177 237 OFFCURVE",
"143 269 OFFCURVE",
"143 321 CURVE SMOOTH",
"143 369 OFFCURVE",
"175 404 OFFCURVE",
"230 404 CURVE SMOOTH",
"282 404 OFFCURVE",
"317 369 OFFCURVE",
"317 321 CURVE SMOOTH",
"317 269 OFFCURVE",
"283 237 OFFCURVE",
"230 237 CURVE SMOOTH"
);
}
);
width = 460;
}
);
unicode = A836;
category = Letter;
},
{
glyphname = uniA837;
lastChange = "2018-08-07 18:02:59 +0000";
layers = (
{
layerId = UUID0;
paths = (
{
closed = 1;
nodes = (
"317 81 OFFCURVE",
"383 147 OFFCURVE",
"383 235 CURVE SMOOTH",
"383 310 OFFCURVE",
"338 366 OFFCURVE",
"262 382 CURVE",
"317 419 OFFCURVE",
"391 475 OFFCURVE",
"433 508 CURVE SMOOTH",
"468 536 LINE SMOOTH",
"476 542 OFFCURVE",
"480 551 OFFCURVE",
"480 559 CURVE SMOOTH",
"480 579 OFFCURVE",
"460 600 OFFCURVE",
"439 600 CURVE SMOOTH",
"433 600 OFFCURVE",
"427 598 OFFCURVE",
"421 594 CURVE SMOOTH",
"158 390 LINE SMOOTH",
"86 334 OFFCURVE",
"57 296 OFFCURVE",
"57 235 CURVE SMOOTH",
"57 146 OFFCURVE",
"124 81 OFFCURVE",
"221 81 CURVE SMOOTH"
);
},
{
closed = 1;
nodes = (
"167 151 OFFCURVE",
"133 184 OFFCURVE",
"133 235 CURVE SMOOTH",
"133 284 OFFCURVE",
"167 318 OFFCURVE",
"220 318 CURVE SMOOTH",
"272 318 OFFCURVE",
"307 283 OFFCURVE",
"307 235 CURVE SMOOTH",
"307 184 OFFCURVE",
"273 151 OFFCURVE",
"220 151 CURVE SMOOTH"
);
}
);
width = 509;
}
);
unicode = A837;
category = Letter;
},
{
glyphname = uniA838;
lastChange = "2018-08-07 18:02:59 +0000";
layers = (
{
layerId = UUID0;
paths = (
{
closed = 1;
nodes = (
"147 -188 OFFCURVE",
"246 -91 OFFCURVE",
"246 177 CURVE SMOOTH",
"246 242 OFFCURVE",
"240 312 OFFCURVE",
"229 395 CURVE SMOOTH",
"221 456 OFFCURVE",
"211 513 OFFCURVE",
"195 567 CURVE SMOOTH",
"188 591 OFFCURVE",
"174 600 OFFCURVE",
"152 600 CURVE SMOOTH",
"127 600 OFFCURVE",
"113 586 OFFCURVE",
"113 567 CURVE SMOOTH",
"113 561 OFFCURVE",
"115 552 OFFCURVE",
"117 546 CURVE SMOOTH",
"143 458 OFFCURVE",
"164 289 OFFCURVE",
"164 180 CURVE SMOOTH",
"163 -41 OFFCURVE",
"97 -115 OFFCURVE",
"-63 -115 CURVE SMOOTH",
"-92 -115 OFFCURVE",
"-128 -106 OFFCURVE",
"-139 -106 CURVE SMOOTH",
"-153 -106 OFFCURVE",
"-162 -126 OFFCURVE",
"-162 -145 CURVE SMOOTH",
"-162 -162 OFFCURVE",
"-155 -178 OFFCURVE",
"-137 -181 CURVE SMOOTH",
"-110 -186 OFFCURVE",
"-84 -188 OFFCURVE",
"-61 -188 CURVE SMOOTH"
);
}
);
width = 307;
}
);
unicode = A838;
category = Letter;
},
{
glyphname = uniA839;
lastChange = "2018-08-07 18:02:59 +0000";
layers = (
{
layerId = UUID0;
paths = (
{
closed = 1;
nodes = (
"136 -240 OFFCURVE",
"255 -148 OFFCURVE",
"255 23 CURVE SMOOTH",
"255 95 OFFCURVE",
"235 165 OFFCURVE",
"200 240 CURVE SMOOTH",
"175 293 OFFCURVE",
"146 362 OFFCURVE",
"146 413 CURVE SMOOTH",
"146 469 OFFCURVE",
"185 507 OFFCURVE",
"251 528 CURVE SMOOTH",
"261 531 OFFCURVE",
"268 542 OFFCURVE",
"268 552 CURVE SMOOTH",
"268 573 OFFCURVE",
"249 600 OFFCURVE",
"231 600 CURVE SMOOTH",
"221 600 OFFCURVE",
"212 596 OFFCURVE",
"200 590 CURVE SMOOTH",
"125 553 OFFCURVE",
"65 504 OFFCURVE",
"65 413 CURVE SMOOTH",
"65 354 OFFCURVE",
"83 298 OFFCURVE",
"119 220 CURVE SMOOTH",
"153 147 OFFCURVE",
"174 86 OFFCURVE",
"174 22 CURVE SMOOTH",
"174 -106 OFFCURVE",
"80 -165 OFFCURVE",
"-104 -165 CURVE SMOOTH",
"-115 -165 OFFCURVE",
"-128 -164 OFFCURVE",
"-133 -164 CURVE SMOOTH",
"-150 -164 OFFCURVE",
"-159 -181 OFFCURVE",
"-159 -201 CURVE SMOOTH",
"-159 -221 OFFCURVE",
"-151 -238 OFFCURVE",
"-136 -239 CURVE SMOOTH",
"-117 -240 OFFCURVE",
"-112 -240 OFFCURVE",
"-100 -240 CURVE SMOOTH"
);
}
);
width = 337;
}
);
unicode = A839;
category = Letter;
},
{
glyphname = u11150;
lastChange = "2018-08-07 18:03:19 +0000";
layers = (
{
anchors = (
{
name = Anchor2;
position = "{460, 140}";
}
);
layerId = UUID0;
paths = (
{
closed = 1;
nodes = (
"148 168 OFFCURVE",
"165 179 OFFCURVE",
"165 202 CURVE SMOOTH",
"165 223 OFFCURVE",
"124 261 OFFCURVE",
"124 342 CURVE SMOOTH",
"124 413 OFFCURVE",
"164 450 OFFCURVE",
"209 450 CURVE SMOOTH",
"278 450 OFFCURVE",
"300 358 OFFCURVE",
"302 307 CURVE",
"300 293 OFFCURVE",
"299 278 OFFCURVE",
"299 264 CURVE SMOOTH",
"299 227 OFFCURVE",
"320 220 OFFCURVE",
"338 220 CURVE SMOOTH",
"354 220 OFFCURVE",
"369 230 OFFCURVE",
"371 247 CURVE SMOOTH",
"375 276 LINE SMOOTH",
"390 388 OFFCURVE",
"422 450 OFFCURVE",
"473 450 CURVE SMOOTH",
"539 450 OFFCURVE",
"559 363 OFFCURVE",
"559 323 CURVE SMOOTH",
"559 312 OFFCURVE",
"559 298 OFFCURVE",
"558 285 CURVE SMOOTH",
"557 272 OFFCURVE",
"557 260 OFFCURVE",
"557 252 CURVE SMOOTH",
"557 232 OFFCURVE",
"574 221 OFFCURVE",
"591 221 CURVE SMOOTH",
"607 221 OFFCURVE",
"624 230 OFFCURVE",
"626 250 CURVE SMOOTH",
"627 257 OFFCURVE",
"629 273 OFFCURVE",
"629 288 CURVE",
"641 386 OFFCURVE",
"678 450 OFFCURVE",
"738 450 CURVE SMOOTH",
"781 450 OFFCURVE",
"797 397 OFFCURVE",
"797 356 CURVE SMOOTH",
"797 317 OFFCURVE",
"786 258 OFFCURVE",
"779 237 CURVE SMOOTH",
"778 233 OFFCURVE",
"777 224 OFFCURVE",
"777 220 CURVE SMOOTH",
"777 202 OFFCURVE",
"791 193 OFFCURVE",
"812 193 CURVE SMOOTH",
"824 193 OFFCURVE",
"844 204 OFFCURVE",
"851 218 CURVE SMOOTH",
"861 237 OFFCURVE",
"881 320 OFFCURVE",
"881 359 CURVE SMOOTH",
"881 446 OFFCURVE",
"845 530 OFFCURVE",
"739 530 CURVE SMOOTH",
"680 530 OFFCURVE",
"635 502 OFFCURVE",
"604 451 CURVE",
"581 496 OFFCURVE",
"540 530 OFFCURVE",
"472 530 CURVE SMOOTH",
"420 530 OFFCURVE",
"372 502 OFFCURVE",
"340 446 CURVE",
"314 494 OFFCURVE",
"272 530 OFFCURVE",
"210 530 CURVE SMOOTH",
"95 530 OFFCURVE",
"40 436 OFFCURVE",
"40 351 CURVE SMOOTH",
"40 275 OFFCURVE",
"66 212 OFFCURVE",
"89 186 CURVE SMOOTH",
"98 176 OFFCURVE",
"108 168 OFFCURVE",
"126 168 CURVE SMOOTH"
);
}
);
width = 921;
}
);
unicode = 11150;
category = Letter;
},
{
glyphname = u11151;
lastChange = "2018-08-07 18:03:19 +0000";
layers = (
{
anchors = (
{
name = Anchor2;
position = "{209, -80}";
}
);
layerId = UUID0;
paths = (
{
closed = 1;
nodes = (
"327 -12 OFFCURVE",
"376 84 OFFCURVE",
"376 163 CURVE SMOOTH",
"376 247 OFFCURVE",
"316 327 OFFCURVE",
"205 327 CURVE SMOOTH",
"190 327 OFFCURVE",
"177 326 OFFCURVE",
"165 324 CURVE",
"215 424 OFFCURVE",
"303 534 OFFCURVE",
"372 591 CURVE SMOOTH",
"383 600 OFFCURVE",
"388 611 OFFCURVE",
"388 622 CURVE SMOOTH",
"388 640 OFFCURVE",
"381 655 OFFCURVE",
"356 655 CURVE SMOOTH",
"336 655 OFFCURVE",
"323 646 OFFCURVE",
"309 635 CURVE SMOOTH",
"200 549 OFFCURVE",
"40 338 OFFCURVE",
"40 194 CURVE SMOOTH",
"40 42 OFFCURVE",
"124 -12 OFFCURVE",
"213 -12 CURVE SMOOTH"
);
},
{
closed = 1;
nodes = (
"171 68 OFFCURVE",
"124 101 OFFCURVE",
"124 190 CURVE SMOOTH",
"124 204 OFFCURVE",
"126 219 OFFCURVE",
"130 235 CURVE",
"148 242 OFFCURVE",
"169 247 OFFCURVE",
"189 247 CURVE SMOOTH",
"261 247 OFFCURVE",
"292 200 OFFCURVE",
"292 157 CURVE SMOOTH",
"292 115 OFFCURVE",
"262 68 OFFCURVE",
"211 68 CURVE SMOOTH"
);
}
);
width = 418;
}
);
unicode = 11151;
category = Letter;
},
{
glyphname = u11152;
lastChange = "2018-08-07 18:03:19 +0000";
layers = (
{
anchors = (
{
name = Anchor2;
position = "{287, -80}";
}
);
layerId = UUID0;
paths = (
{
closed = 1;
nodes = (
"430 -12 OFFCURVE",
"477 90 OFFCURVE",
"477 144 CURVE SMOOTH",
"477 181 OFFCURVE",
"463 235 OFFCURVE",
"422 264 CURVE",
"451 289 OFFCURVE",
"468 323 OFFCURVE",
"468 358 CURVE SMOOTH",
"468 442 OFFCURVE",
"400 489 OFFCURVE",
"332 489 CURVE SMOOTH",
"290 489 OFFCURVE",
"255 474 OFFCURVE",
"225 456 CURVE SMOOTH",
"216 450 OFFCURVE",
"212 439 OFFCURVE",
"212 429 CURVE SMOOTH",
"212 412 OFFCURVE",
"224 393 OFFCURVE",
"241 393 CURVE SMOOTH",
"243 393 OFFCURVE",
"246 394 OFFCURVE",
"251 397 CURVE SMOOTH",
"266 406 OFFCURVE",
"300 415 OFFCURVE",
"323 415 CURVE SMOOTH",
"370 415 OFFCURVE",
"387 381 OFFCURVE",
"387 355 CURVE SMOOTH",
"387 325 OFFCURVE",
"361 289 OFFCURVE",
"312 288 CURVE",
"300 285 OFFCURVE",
"295 271 OFFCURVE",
"295 258 CURVE SMOOTH",
"295 242 OFFCURVE",
"303 226 OFFCURVE",
"312 225 CURVE SMOOTH",
"319 225 OFFCURVE",
"326 225 OFFCURVE",
"333 226 CURVE",
"384 219 OFFCURVE",
"396 174 OFFCURVE",
"396 155 CURVE SMOOTH",
"396 104 OFFCURVE",
"356 64 OFFCURVE",
"302 64 CURVE SMOOTH",
"240 64 OFFCURVE",
"124 116 OFFCURVE",
"124 295 CURVE SMOOTH",
"124 446 OFFCURVE",
"204 575 OFFCURVE",
"342 575 CURVE SMOOTH",
"392 575 OFFCURVE",
"456 568 OFFCURVE",
"490 546 CURVE SMOOTH",
"499 540 OFFCURVE",
"511 533 OFFCURVE",
"519 533 CURVE SMOOTH",
"539 533 OFFCURVE",
"554 548 OFFCURVE",
"554 566 CURVE SMOOTH",
"554 576 OFFCURVE",
"549 587 OFFCURVE",
"537 595 CURVE SMOOTH",
"480 634 OFFCURVE",
"423 655 OFFCURVE",
"345 655 CURVE SMOOTH",
"172 655 OFFCURVE",
"40 507 OFFCURVE",
"40 293 CURVE SMOOTH",
"40 114 OFFCURVE",
"149 -12 OFFCURVE",
"297 -12 CURVE SMOOTH"
);
}
);
width = 574;
}
);
unicode = 11152;
category = Letter;
},
{
glyphname = u11153;
lastChange = "2018-08-07 18:03:19 +0000";
layers = (
{
anchors = (
{
name = Anchor2;
position = "{304, 90}";
}
);
layerId = UUID0;
paths = (
{
closed = 1;
nodes = (
"83 -12 OFFCURVE",
"99 25 OFFCURVE",
"112 47 CURVE SMOOTH",
"146 102 OFFCURVE",
"180 144 OFFCURVE",
"217 182 CURVE",
"233 178 OFFCURVE",
"250 176 OFFCURVE",
"270 176 CURVE SMOOTH",
"376 176 OFFCURVE",
"422 231 OFFCURVE",
"475 316 CURVE SMOOTH",
"547 432 LINE SMOOTH",
"559 451 OFFCURVE",
"579 476 OFFCURVE",
"579 498 CURVE SMOOTH",
"579 514 OFFCURVE",
"566 530 OFFCURVE",
"537 530 CURVE SMOOTH",
"521 530 OFFCURVE",
"505 514 OFFCURVE",
"489 488 CURVE SMOOTH",
"408 359 LINE SMOOTH",
"372 302 OFFCURVE",
"342 256 OFFCURVE",
"275 256 CURVE SMOOTH",
"218 256 OFFCURVE",
"183 282 OFFCURVE",
"183 344 CURVE SMOOTH",
"183 398 OFFCURVE",
"231 449 OFFCURVE",
"274 484 CURVE SMOOTH",
"317 519 OFFCURVE",
"321 530 OFFCURVE",
"321 551 CURVE SMOOTH",
"321 570 OFFCURVE",
"308 580 OFFCURVE",
"285 580 CURVE SMOOTH",
"265 580 OFFCURVE",
"236 556 OFFCURVE",
"216 539 CURVE SMOOTH",
"149 484 OFFCURVE",
"99 416 OFFCURVE",
"99 338 CURVE SMOOTH",
"99 301 OFFCURVE",
"112 255 OFFCURVE",
"145 222 CURVE",
"106 176 OFFCURVE",
"67 127 OFFCURVE",
"40 83 CURVE SMOOTH",
"25 58 OFFCURVE",
"20 38 OFFCURVE",
"20 22 CURVE SMOOTH",
"20 6 OFFCURVE",
"32 -12 OFFCURVE",
"55 -12 CURVE SMOOTH"
);
}
);
width = 609;
}
);
unicode = 11153;
category = Letter;
},
{
glyphname = u11154;
lastChange = "2018-08-07 18:03:19 +0000";
layers = (
{
anchors = (
{
name = Anchor2;
position = "{530, 140}";
}
);
components = (
{
name = u11150;
transform = "{1, 0, 0, 1, 70, 0}";
}
);
layerId = UUID0;
paths = (
{
closed = 1;
nodes = (
"257 482 OFFCURVE",
"298 485 OFFCURVE",
"317 493 CURVE",
"318 502 OFFCURVE",
"319 511 OFFCURVE",
"319 518 CURVE SMOOTH",
"319 610 OFFCURVE",
"255 656 OFFCURVE",
"196 656 CURVE SMOOTH",
"160 656 OFFCURVE",
"137 653 OFFCURVE",
"114 653 CURVE SMOOTH",
"62 653 OFFCURVE",
"39 675 OFFCURVE",
"22 702 CURVE SMOOTH",
"16 712 OFFCURVE",
"7 716 OFFCURVE",
"-2 716 CURVE SMOOTH",
"-24 716 OFFCURVE",
"-40 696 OFFCURVE",
"-40 672 CURVE SMOOTH",
"-40 667 OFFCURVE",
"-38 662 OFFCURVE",
"-35 658 CURVE",
"-10 610 OFFCURVE",
"26 575 OFFCURVE",
"95 575 CURVE SMOOTH",
"116 575 OFFCURVE",
"133 578 OFFCURVE",
"182 578 CURVE SMOOTH",
"207 578 OFFCURVE",
"241 561 OFFCURVE",
"241 504 CURVE SMOOTH",
"241 494 OFFCURVE",
"240 484 OFFCURVE",
"238 472 CURVE"
);
}
);
width = 991;
}
);
unicode = 11154;
category = Letter;
},
{
glyphname = u11155;
lastChange = "2018-08-07 18:03:19 +0000";
layers = (
{
anchors = (
{
name = Anchor2;
position = "{237, -90}";
}
);
layerId = UUID0;
paths = (
{
closed = 1;
nodes = (
"203 -24 OFFCURVE",
"216 -24 OFFCURVE",
"219 -23 CURVE SMOOTH",
"350 0 OFFCURVE",
"435 79 OFFCURVE",
"435 177 CURVE SMOOTH",
"435 261 OFFCURVE",
"387 316 OFFCURVE",
"318 337 CURVE",
"354 369 OFFCURVE",
"373 409 OFFCURVE",
"373 458 CURVE SMOOTH",
"373 527 OFFCURVE",
"321 600 OFFCURVE",
"207 600 CURVE SMOOTH",
"140 600 OFFCURVE",
"61 559 OFFCURVE",
"36 528 CURVE SMOOTH",
"20 508 OFFCURVE",
"20 500 OFFCURVE",
"20 489 CURVE SMOOTH",
"20 473 OFFCURVE",
"31 462 OFFCURVE",
"52 462 CURVE SMOOTH",
"60 462 OFFCURVE",
"71 467 OFFCURVE",
"80 473 CURVE SMOOTH",
"88 479 OFFCURVE",
"104 490 OFFCURVE",
"126 501 CURVE SMOOTH",
"148 512 OFFCURVE",
"174 520 OFFCURVE",
"207 520 CURVE SMOOTH",
"264 520 OFFCURVE",
"289 488 OFFCURVE",
"289 455 CURVE SMOOTH",
"289 396 OFFCURVE",
"240 353 OFFCURVE",
"164 339 CURVE SMOOTH",
"146 336 OFFCURVE",
"136 322 OFFCURVE",
"136 307 CURVE SMOOTH",
"136 288 OFFCURVE",
"150 270 OFFCURVE",
"166 270 CURVE SMOOTH",
"192 270 OFFCURVE",
"214 278 OFFCURVE",
"238 278 CURVE SMOOTH",
"296 278 OFFCURVE",
"351 250 OFFCURVE",
"351 180 CURVE SMOOTH",
"351 116 OFFCURVE",
"290 57 OFFCURVE",
"195 40 CURVE SMOOTH",
"174 36 OFFCURVE",
"165 21 OFFCURVE",
"165 6 CURVE SMOOTH",
"165 -12 OFFCURVE",
"178 -24 OFFCURVE",
"200 -24 CURVE SMOOTH"
);
}
);
width = 475;
}
);
unicode = 11155;
category = Letter;
},
{
glyphname = u11156;
lastChange = "2018-08-07 18:03:19 +0000";
layers = (
{
anchors = (
{
name = Anchor2;
position = "{226, -80}";
}
);
layerId = UUID0;
paths = (
{
closed = 1;
nodes = (
"162 -17 OFFCURVE",
"177 3 OFFCURVE",
"188 20 CURVE SMOOTH",
"225 79 OFFCURVE",
"282 123 OFFCURVE",
"387 173 CURVE SMOOTH",
"398 178 OFFCURVE",
"409 183 OFFCURVE",
"417 187 CURVE SMOOTH",
"427 192 OFFCURVE",
"433 204 OFFCURVE",
"433 217 CURVE SMOOTH",
"433 240 OFFCURVE",
"416 262 OFFCURVE",
"396 262 CURVE SMOOTH",
"392 262 OFFCURVE",
"388 261 OFFCURVE",
"384 259 CURVE SMOOTH",
"341 233 OFFCURVE",
"290 217 OFFCURVE",
"244 217 CURVE SMOOTH",
"182 217 OFFCURVE",
"120 253 OFFCURVE",
"120 342 CURVE SMOOTH",
"120 432 OFFCURVE",
"211 510 OFFCURVE",
"265 528 CURVE SMOOTH",
"277 532 OFFCURVE",
"292 545 OFFCURVE",
"292 562 CURVE SMOOTH",
"292 589 OFFCURVE",
"275 600 OFFCURVE",
"255 600 CURVE SMOOTH",
"245 600 OFFCURVE",
"234 596 OFFCURVE",
"223 591 CURVE SMOOTH",
"106 540 OFFCURVE",
"40 438 OFFCURVE",
"40 334 CURVE SMOOTH",
"40 233 OFFCURVE",
"105 160 OFFCURVE",
"195 144 CURVE",
"165 117 OFFCURVE",
"140 87 OFFCURVE",
"122 59 CURVE SMOOTH",
"112 44 OFFCURVE",
"106 27 OFFCURVE",
"106 14 CURVE SMOOTH",
"106 -4 OFFCURVE",
"117 -17 OFFCURVE",
"145 -17 CURVE SMOOTH"
);
}
);
width = 453;
}
);
unicode = 11156;
category = Letter;
},
{
glyphname = u11157;
lastChange = "2018-08-07 18:03:19 +0000";
layers = (
{
anchors = (
{
name = Anchor2;
position = "{333, 10}";
}
);
layerId = UUID0;
paths = (
{
closed = 1;
nodes = (
"211 89 OFFCURVE",
"222 91 OFFCURVE",
"233 96 CURVE SMOOTH",
"347 144 OFFCURVE",
"416 231 OFFCURVE",
"416 335 CURVE SMOOTH",
"416 450 OFFCURVE",
"328 530 OFFCURVE",
"209 530 CURVE SMOOTH",
"132 530 OFFCURVE",
"88 508 OFFCURVE",
"75 501 CURVE SMOOTH",
"44 485 OFFCURVE",
"20 472 OFFCURVE",
"20 444 CURVE SMOOTH",
"20 424 OFFCURVE",
"34 407 OFFCURVE",
"55 407 CURVE SMOOTH",
"59 407 OFFCURVE",
"63 408 OFFCURVE",
"67 410 CURVE SMOOTH",
"110 436 OFFCURVE",
"162 454 OFFCURVE",
"208 454 CURVE SMOOTH",
"270 454 OFFCURVE",
"332 416 OFFCURVE",
"332 327 CURVE SMOOTH",
"332 237 OFFCURVE",
"237 176 OFFCURVE",
"183 158 CURVE SMOOTH",
"171 154 OFFCURVE",
"164 137 OFFCURVE",
"164 128 CURVE SMOOTH",
"164 97 OFFCURVE",
"181 89 OFFCURVE",
"201 89 CURVE SMOOTH"
);
},
{
closed = 1;
nodes = (
"514 67 OFFCURVE",
"529 73 OFFCURVE",
"539 86 CURVE SMOOTH",
"597 159 OFFCURVE",
"617 254 OFFCURVE",
"617 323 CURVE SMOOTH",
"617 392 OFFCURVE",
"598 487 OFFCURVE",
"539 561 CURVE SMOOTH",
"529 574 OFFCURVE",
"514 580 OFFCURVE",
"500 580 CURVE SMOOTH",
"480 580 OFFCURVE",
"464 564 OFFCURVE",
"464 542 CURVE SMOOTH",
"464 535 OFFCURVE",
"468 524 OFFCURVE",
"473 517 CURVE SMOOTH",
"522 456 OFFCURVE",
"533 387 OFFCURVE",
"533 329 CURVE SMOOTH",
"533 270 OFFCURVE",
"522 187 OFFCURVE",
"473 129 CURVE SMOOTH",
"467 122 OFFCURVE",
"464 112 OFFCURVE",
"464 105 CURVE SMOOTH",
"464 83 OFFCURVE",
"480 67 OFFCURVE",
"500 67 CURVE SMOOTH"
);
}
);
width = 667;
}
);
unicode = 11157;
category = Letter;
},
{
glyphname = u11158;
lastChange = "2018-08-07 18:03:19 +0000";
layers = (
{
anchors = (
{
name = Anchor2;
position = "{370, -80}";
}
);
layerId = UUID0;
paths = (
{
closed = 1;
nodes = (
"441 -12 OFFCURVE",
"507 50 OFFCURVE",
"552 141 CURVE",
"574 92 OFFCURVE",
"612 42 OFFCURVE",
"678 -6 CURVE SMOOTH",
"682 -9 OFFCURVE",
"692 -12 OFFCURVE",
"697 -12 CURVE SMOOTH",
"722 -12 OFFCURVE",
"740 8 OFFCURVE",
"740 28 CURVE SMOOTH",
"740 38 OFFCURVE",
"736 47 OFFCURVE",
"726 55 CURVE SMOOTH",
"652 116 OFFCURVE",
"609 170 OFFCURVE",
"609 267 CURVE SMOOTH",
"609 294 OFFCURVE",
"613 311 OFFCURVE",
"613 327 CURVE SMOOTH",
"613 347 OFFCURVE",
"600 356 OFFCURVE",
"578 356 CURVE SMOOTH",
"559 356 OFFCURVE",
"541 349 OFFCURVE",
"537 334 CURVE SMOOTH",
"500 199 OFFCURVE",
"450 70 OFFCURVE",
"326 70 CURVE SMOOTH",
"259 70 OFFCURVE",
"226 119 OFFCURVE",
"226 174 CURVE SMOOTH",
"226 206 OFFCURVE",
"240 238 OFFCURVE",
"263 265 CURVE SMOOTH",
"285 291 OFFCURVE",
"314 306 OFFCURVE",
"314 329 CURVE SMOOTH",
"314 349 OFFCURVE",
"300 362 OFFCURVE",
"285 362 CURVE SMOOTH",
"281 362 OFFCURVE",
"277 361 OFFCURVE",
"273 359 CURVE SMOOTH",
"253 346 LINE SMOOTH",
"232 333 OFFCURVE",
"207 326 OFFCURVE",
"185 326 CURVE SMOOTH",
"152 326 OFFCURVE",
"124 347 OFFCURVE",
"124 387 CURVE SMOOTH",
"124 437 OFFCURVE",
"158 498 OFFCURVE",
"235 533 CURVE SMOOTH",
"251 540 OFFCURVE",
"256 551 OFFCURVE",
"256 562 CURVE SMOOTH",
"256 582 OFFCURVE",
"246 600 OFFCURVE",
"224 600 CURVE SMOOTH",
"220 600 OFFCURVE",
"206 596 OFFCURVE",
"196 592 CURVE SMOOTH",
"104 553 OFFCURVE",
"40 473 OFFCURVE",
"40 389 CURVE SMOOTH",
"40 298 OFFCURVE",
"100 250 OFFCURVE",
"161 248 CURVE",
"148 222 OFFCURVE",
"142 194 OFFCURVE",
"142 164 CURVE SMOOTH",
"142 45 OFFCURVE",
"232 -12 OFFCURVE",
"327 -12 CURVE SMOOTH"
);
}
);
width = 740;
}
);
unicode = 11158;
category = Letter;
},
{
glyphname = u11159;
lastChange = "2018-08-07 18:03:19 +0000";
layers = (
{
anchors = (
{
name = Anchor2;
position = "{371, 50}";
}
);
layerId = UUID0;
paths = (
{
closed = 1;
nodes = (
"700 -23 OFFCURVE",
"713 -7 OFFCURVE",
"713 16 CURVE SMOOTH",
"713 29 OFFCURVE",
"706 42 OFFCURVE",
"695 61 CURVE SMOOTH",
"653 131 OFFCURVE",
"602 262 OFFCURVE",
"602 377 CURVE SMOOTH",
"602 409 OFFCURVE",
"607 439 OFFCURVE",
"617 467 CURVE SMOOTH",
"620 476 OFFCURVE",
"622 485 OFFCURVE",
"622 492 CURVE SMOOTH",
"622 517 OFFCURVE",
"604 530 OFFCURVE",
"585 530 CURVE SMOOTH",
"572 530 OFFCURVE",
"562 525 OFFCURVE",
"546 512 CURVE SMOOTH",
"479 458 OFFCURVE",
"409 379 OFFCURVE",
"330 266 CURVE",
"305 353 OFFCURVE",
"270 442 OFFCURVE",
"257 469 CURVE SMOOTH",
"241 501 OFFCURVE",
"212 530 OFFCURVE",
"185 530 CURVE SMOOTH",
"135 530 OFFCURVE",
"46 476 OFFCURVE",
"1 429 CURVE SMOOTH",
"-7 421 OFFCURVE",
"-10 410 OFFCURVE",
"-10 401 CURVE SMOOTH",
"-10 380 OFFCURVE",
"6 362 OFFCURVE",
"30 362 CURVE SMOOTH",
"40 362 OFFCURVE",
"48 368 OFFCURVE",
"52 371 CURVE SMOOTH",
"94 401 OFFCURVE",
"128 421 OFFCURVE",
"171 444 CURVE",
"215 363 OFFCURVE",
"251 226 OFFCURVE",
"269 156 CURVE SMOOTH",
"275 133 OFFCURVE",
"289 121 OFFCURVE",
"307 121 CURVE SMOOTH",
"321 121 OFFCURVE",
"334 128 OFFCURVE",
"345 145 CURVE SMOOTH",
"389 213 OFFCURVE",
"453 298 OFFCURVE",
"516 369 CURVE",
"516 217 OFFCURVE",
"596 55 OFFCURVE",
"633 6 CURVE SMOOTH",
"645 -10 OFFCURVE",
"661 -23 OFFCURVE",
"679 -23 CURVE SMOOTH"
);
}
);
width = 723;
}
);
unicode = 11159;
category = Letter;
},
{
glyphname = u1115A;
lastChange = "2018-08-07 18:03:19 +0000";
layers = (
{
anchors = (
{
name = Anchor2;
position = "{362, -80}";
}
);
layerId = UUID0;
paths = (
{
closed = 1;
nodes = (
"626 -56 OFFCURVE",
"685 -27 OFFCURVE",
"685 60 CURVE SMOOTH",
"685 126 OFFCURVE",
"631 177 OFFCURVE",
"573 222 CURVE",
"595 279 OFFCURVE",
"607 335 OFFCURVE",
"607 381 CURVE SMOOTH",
"607 441 OFFCURVE",
"574 520 OFFCURVE",
"477 520 CURVE SMOOTH",
"392 520 OFFCURVE",
"349 454 OFFCURVE",
"349 382 CURVE SMOOTH",
"349 305 OFFCURVE",
"410 247 OFFCURVE",
"473 197 CURVE",
"434 127 OFFCURVE",
"376 68 OFFCURVE",
"299 68 CURVE SMOOTH",
"241 68 OFFCURVE",
"191 108 OFFCURVE",
"191 161 CURVE SMOOTH",
"191 200 OFFCURVE",
"211 236 OFFCURVE",
"244 265 CURVE SMOOTH",
"273 290 OFFCURVE",
"304 299 OFFCURVE",
"304 327 CURVE SMOOTH",
"304 344 OFFCURVE",
"293 356 OFFCURVE",
"280 358 CURVE SMOOTH",
"276 358 OFFCURVE",
"272 358 OFFCURVE",
"268 357 CURVE SMOOTH",
"240 346 OFFCURVE",
"221 336 OFFCURVE",
"192 336 CURVE SMOOTH",
"155 336 OFFCURVE",
"124 363 OFFCURVE",
"124 402 CURVE SMOOTH",
"124 455 OFFCURVE",
"165 507 OFFCURVE",
"252 532 CURVE SMOOTH",
"274 538 OFFCURVE",
"278 552 OFFCURVE",
"278 566 CURVE SMOOTH",
"278 583 OFFCURVE",
"269 600 OFFCURVE",
"248 600 CURVE SMOOTH",
"242 600 OFFCURVE",
"231 598 OFFCURVE",
"222 596 CURVE SMOOTH",
"113 568 OFFCURVE",
"40 496 OFFCURVE",
"40 401 CURVE SMOOTH",
"40 327 OFFCURVE",
"86 276 OFFCURVE",
"140 264 CURVE",
"118 231 OFFCURVE",
"107 194 OFFCURVE",
"107 152 CURVE SMOOTH",
"107 36 OFFCURVE",
"210 -12 OFFCURVE",
"299 -12 CURVE SMOOTH",
"403 -12 OFFCURVE",
"484 60 OFFCURVE",
"537 148 CURVE",
"575 118 OFFCURVE",
"605 89 OFFCURVE",
"605 61 CURVE SMOOTH",
"605 30 OFFCURVE",
"587 14 OFFCURVE",
"562 14 CURVE SMOOTH",
"543 14 OFFCURVE",
"524 24 OFFCURVE",
"508 24 CURVE SMOOTH",
"493 24 OFFCURVE",
"480 9 OFFCURVE",
"480 -9 CURVE SMOOTH",
"480 -23 OFFCURVE",
"489 -34 OFFCURVE",
"505 -42 CURVE SMOOTH",
"526 -53 OFFCURVE",
"554 -56 OFFCURVE",
"579 -56 CURVE SMOOTH"
);
},
{
closed = 1;
nodes = (
"463 308 OFFCURVE",
"429 343 OFFCURVE",
"429 382 CURVE SMOOTH",
"429 423 OFFCURVE",
"449 442 OFFCURVE",
"478 442 CURVE SMOOTH",
"509 442 OFFCURVE",
"527 419 OFFCURVE",
"527 382 CURVE SMOOTH",
"527 354 OFFCURVE",
"520 315 OFFCURVE",
"506 274 CURVE"
);
}
);
width = 725;
}
);
unicode = 1115A;
category = Letter;
},
{
glyphname = u1115B;
lastChange = "2018-08-07 18:03:19 +0000";
layers = (
{
anchors = (
{
name = Anchor2;
position = "{198, -60}";
}
);
layerId = UUID0;
paths = (
{
closed = 1;
nodes = (
"65 -12 OFFCURVE",
"107 -2 OFFCURVE",
"121 2 CURVE SMOOTH",
"304 59 OFFCURVE",
"396 208 OFFCURVE",
"396 394 CURVE SMOOTH",
"396 546 OFFCURVE",
"314 600 OFFCURVE",
"213 600 CURVE SMOOTH",
"99 600 OFFCURVE",
"40 517 OFFCURVE",
"40 425 CURVE SMOOTH",
"40 341 OFFCURVE",
"100 261 OFFCURVE",
"211 261 CURVE SMOOTH",
"240 261 OFFCURVE",
"268 265 OFFCURVE",
"295 270 CURVE",
"258 150 OFFCURVE",
"166 84 OFFCURVE",
"38 52 CURVE SMOOTH",
"21 48 OFFCURVE",
"15 31 OFFCURVE",
"15 18 CURVE SMOOTH",
"15 -7 OFFCURVE",
"32 -12 OFFCURVE",
"52 -12 CURVE SMOOTH"
);
},
{
closed = 1;
nodes = (
"155 341 OFFCURVE",
"124 388 OFFCURVE",
"124 431 CURVE SMOOTH",
"124 473 OFFCURVE",
"150 520 OFFCURVE",
"215 520 CURVE SMOOTH",
"273 520 OFFCURVE",
"312 487 OFFCURVE",
"312 398 CURVE SMOOTH",
"312 385 OFFCURVE",
"311 372 OFFCURVE",
"310 360 CURVE",
"286 348 OFFCURVE",
"252 341 OFFCURVE",
"227 341 CURVE SMOOTH"
);
}
);
width = 436;
}
);
unicode = 1115B;
category = Letter;
},
{
glyphname = u1115C;
lastChange = "2018-08-07 18:03:19 +0000";
layers = (
{
anchors = (
{
name = Anchor2;
position = "{322, -80}";
}
);
layerId = UUID0;
paths = (
{
closed = 1;
nodes = (
"562 -41 OFFCURVE",
"582 -28 OFFCURVE",
"582 -6 CURVE SMOOTH",
"582 141 OFFCURVE",
"426 277 OFFCURVE",
"426 380 CURVE SMOOTH",
"426 425 OFFCURVE",
"457 442 OFFCURVE",
"475 442 CURVE SMOOTH",
"506 442 OFFCURVE",
"524 421 OFFCURVE",
"524 376 CURVE SMOOTH",
"524 271 OFFCURVE",
"437 68 OFFCURVE",
"302 68 CURVE SMOOTH",
"226 68 OFFCURVE",
"191 112 OFFCURVE",
"191 165 CURVE SMOOTH",
"191 204 OFFCURVE",
"211 235 OFFCURVE",
"244 264 CURVE SMOOTH",
"273 289 OFFCURVE",
"304 298 OFFCURVE",
"304 326 CURVE SMOOTH",
"304 343 OFFCURVE",
"293 355 OFFCURVE",
"280 357 CURVE SMOOTH",
"276 357 OFFCURVE",
"272 357 OFFCURVE",
"268 356 CURVE SMOOTH",
"159 311 OFFCURVE",
"107 252 OFFCURVE",
"107 161 CURVE SMOOTH",
"107 45 OFFCURVE",
"194 -12 OFFCURVE",
"296 -12 CURVE SMOOTH",
"496 -12 OFFCURVE",
"604 242 OFFCURVE",
"604 377 CURVE SMOOTH",
"604 443 OFFCURVE",
"571 520 OFFCURVE",
"474 520 CURVE SMOOTH",
"389 520 OFFCURVE",
"346 456 OFFCURVE",
"346 384 CURVE SMOOTH",
"346 227 OFFCURVE",
"502 132 OFFCURVE",
"505 -10 CURVE SMOOTH",
"505 -29 OFFCURVE",
"521 -41 OFFCURVE",
"543 -41 CURVE SMOOTH"
);
},
{
closed = 1;
nodes = (
"74 -105 OFFCURVE",
"89 -99 OFFCURVE",
"99 -86 CURVE SMOOTH",
"162 -7 OFFCURVE",
"191 97 OFFCURVE",
"191 158 CURVE",
"107 159 LINE",
"107 100 OFFCURVE",
"86 21 OFFCURVE",
"34 -41 CURVE SMOOTH",
"27 -49 OFFCURVE",
"24 -60 OFFCURVE",
"24 -67 CURVE SMOOTH",
"24 -89 OFFCURVE",
"40 -105 OFFCURVE",
"60 -105 CURVE SMOOTH"
);
},
{
closed = 1;
nodes = (
"172 260 OFFCURVE",
"176 260 OFFCURVE",
"181 261 CURVE",
"257 351 LINE",
"237 341 OFFCURVE",
"214 335 OFFCURVE",
"192 335 CURVE SMOOTH",
"155 335 OFFCURVE",
"124 364 OFFCURVE",
"124 403 CURVE SMOOTH",
"124 456 OFFCURVE",
"165 507 OFFCURVE",
"252 532 CURVE SMOOTH",
"274 538 OFFCURVE",
"278 552 OFFCURVE",
"278 566 CURVE SMOOTH",
"278 583 OFFCURVE",
"269 600 OFFCURVE",
"248 600 CURVE SMOOTH",
"242 600 OFFCURVE",
"231 598 OFFCURVE",
"222 596 CURVE SMOOTH",
"113 568 OFFCURVE",
"40 497 OFFCURVE",
"40 402 CURVE SMOOTH",
"40 316 OFFCURVE",
"103 260 OFFCURVE",
"167 260 CURVE SMOOTH"
);
}
);
width = 644;
}
);
unicode = 1115C;
category = Letter;
},
{
glyphname = u1115D;
lastChange = "2018-08-07 18:03:19 +0000";
layers = (
{
anchors = (
{
name = Anchor2;
position = "{376, -42}";
}
);
layerId = UUID0;
paths = (
{
closed = 1;
nodes = (
"560 23 OFFCURVE",
"712 103 OFFCURVE",
"712 271 CURVE SMOOTH",
"712 400 OFFCURVE",
"624 474 OFFCURVE",
"520 474 CURVE SMOOTH",
"491 474 OFFCURVE",
"463 469 OFFCURVE",
"435 459 CURVE",
"435 466 LINE SMOOTH",
"435 543 OFFCURVE",
"395 600 OFFCURVE",
"307 600 CURVE SMOOTH",
"259 600 OFFCURVE",
"222 582 OFFCURVE",
"200 565 CURVE SMOOTH",
"182 551 OFFCURVE",
"174 537 OFFCURVE",
"174 525 CURVE SMOOTH",
"174 508 OFFCURVE",
"184 497 OFFCURVE",
"203 497 CURVE SMOOTH",
"207 497 OFFCURVE",
"214 498 OFFCURVE",
"222 502 CURVE SMOOTH",
"242 513 OFFCURVE",
"271 522 OFFCURVE",
"294 522 CURVE SMOOTH",
"336 522 OFFCURVE",
"352 497 OFFCURVE",
"352 457 CURVE SMOOTH",
"352 434 OFFCURVE",
"336 405 OFFCURVE",
"312 377 CURVE SMOOTH",
"303 367 OFFCURVE",
"297 357 OFFCURVE",
"297 347 CURVE SMOOTH",
"297 330 OFFCURVE",
"312 318 OFFCURVE",
"330 318 CURVE SMOOTH",
"351 318 OFFCURVE",
"370 340 OFFCURVE",
"382 350 CURVE SMOOTH",
"401 366 OFFCURVE",
"437 394 OFFCURVE",
"514 394 CURVE SMOOTH",
"569 394 OFFCURVE",
"628 362 OFFCURVE",
"628 274 CURVE SMOOTH",
"628 151 OFFCURVE",
"516 103 OFFCURVE",
"389 103 CURVE SMOOTH",
"228 103 OFFCURVE",
"106 179 OFFCURVE",
"75 199 CURVE SMOOTH",
"55 212 OFFCURVE",
"42 227 OFFCURVE",
"22 227 CURVE SMOOTH",
"2 227 OFFCURVE",
"-10 215 OFFCURVE",
"-10 198 CURVE SMOOTH",
"-10 188 OFFCURVE",
"-8 179 OFFCURVE",
"2 167 CURVE SMOOTH",
"12 156 OFFCURVE",
"26 148 OFFCURVE",
"42 136 CURVE SMOOTH",
"104 90 OFFCURVE",
"212 23 OFFCURVE",
"392 23 CURVE SMOOTH"
);
}
);
width = 752;
}
);
unicode = 1115D;
category = Letter;
},
{
glyphname = u1115E;
lastChange = "2018-08-07 18:03:19 +0000";
layers = (
{
anchors = (
{
name = Anchor2;
position = "{244, -80}";
}
);
layerId = UUID0;
paths = (
{
closed = 1;
nodes = (
"348 -12 OFFCURVE",
"420 26 OFFCURVE",
"458 78 CURVE SMOOTH",
"463 85 OFFCURVE",
"468 95 OFFCURVE",
"468 103 CURVE SMOOTH",
"468 125 OFFCURVE",
"453 141 OFFCURVE",
"435 141 CURVE SMOOTH",
"424 141 OFFCURVE",
"417 135 OFFCURVE",
"411 128 CURVE SMOOTH",
"382 95 OFFCURVE",
"323 68 OFFCURVE",
"276 68 CURVE SMOOTH",
"184 68 OFFCURVE",
"150 135 OFFCURVE",
"150 193 CURVE SMOOTH",
"150 264 OFFCURVE",
"200 334 OFFCURVE",
"292 334 CURVE SMOOTH",
"313 334 OFFCURVE",
"327 331 OFFCURVE",
"344 331 CURVE SMOOTH",
"363 331 OFFCURVE",
"384 337 OFFCURVE",
"384 367 CURVE SMOOTH",
"384 396 OFFCURVE",
"350 411 OFFCURVE",
"294 411 CURVE SMOOTH",
"250 411 OFFCURVE",
"212 402 OFFCURVE",
"180 385 CURVE",
"119 423 OFFCURVE",
"86 499 OFFCURVE",
"79 562 CURVE SMOOTH",
"76 591 OFFCURVE",
"56 600 OFFCURVE",
"40 600 CURVE SMOOTH",
"18 600 OFFCURVE",
"0 578 OFFCURVE",
"0 557 CURVE SMOOTH",
"0 532 OFFCURVE",
"11 475 OFFCURVE",
"25 445 CURVE SMOOTH",
"47 398 OFFCURVE",
"67 369 OFFCURVE",
"117 334 CURVE",
"83 293 OFFCURVE",
"66 241 OFFCURVE",
"66 188 CURVE SMOOTH",
"66 62 OFFCURVE",
"157 -12 OFFCURVE",
"268 -12 CURVE SMOOTH"
);
}
);
width = 488;
}
);
unicode = 1115E;
category = Letter;
},
{
glyphname = u1115F;
lastChange = "2018-08-07 18:03:19 +0000";
layers = (
{
anchors = (
{
name = Anchor2;
position = "{231, -80}";
}
);
layerId = UUID0;
paths = (
{
closed = 1;
nodes = (
"307 -12 OFFCURVE",
"413 34 OFFCURVE",
"413 168 CURVE SMOOTH",
"413 285 OFFCURVE",
"327 351 OFFCURVE",
"267 393 CURVE SMOOTH",
"218 427 OFFCURVE",
"172 459 OFFCURVE",
"172 500 CURVE SMOOTH",
"172 533 OFFCURVE",
"188 574 OFFCURVE",
"269 574 CURVE SMOOTH",
"327 574 OFFCURVE",
"350 561 OFFCURVE",
"372 561 CURVE SMOOTH",
"388 561 OFFCURVE",
"404 572 OFFCURVE",
"404 594 CURVE SMOOTH",
"404 624 OFFCURVE",
"358 655 OFFCURVE",
"266 655 CURVE SMOOTH",
"143 655 OFFCURVE",
"88 577 OFFCURVE",
"88 496 CURVE SMOOTH",
"88 427 OFFCURVE",
"131 389 OFFCURVE",
"180 354 CURVE",
"89 298 OFFCURVE",
"50 239 OFFCURVE",
"50 163 CURVE SMOOTH",
"50 69 OFFCURVE",
"116 -12 OFFCURVE",
"223 -12 CURVE SMOOTH"
);
},
{
closed = 1;
nodes = (
"170 69 OFFCURVE",
"136 114 OFFCURVE",
"136 161 CURVE SMOOTH",
"136 217 OFFCURVE",
"168 260 OFFCURVE",
"252 303 CURVE",
"248 306 LINE SMOOTH",
"292 273 OFFCURVE",
"328 233 OFFCURVE",
"328 167 CURVE SMOOTH",
"328 96 OFFCURVE",
"274 69 OFFCURVE",
"227 69 CURVE SMOOTH"
);
}
);
width = 463;
}
);
unicode = 1115F;
category = Letter;
},
{
glyphname = u11160;
lastChange = "2018-08-07 18:03:19 +0000";
layers = (
{
anchors = (
{
name = Anchor2;
position = "{150, -38}";
}
);
layerId = UUID0;
paths = (
{
closed = 1;
nodes = (
"88 31 OFFCURVE",
"101 36 OFFCURVE",
"111 41 CURVE SMOOTH",
"172 71 OFFCURVE",
"242 115 OFFCURVE",
"242 206 CURVE SMOOTH",
"242 248 OFFCURVE",
"217 288 OFFCURVE",
"191 324 CURVE SMOOTH",
"161 365 OFFCURVE",
"127 391 OFFCURVE",
"127 424 CURVE SMOOTH",
"127 480 OFFCURVE",
"154 500 OFFCURVE",
"209 534 CURVE SMOOTH",
"224 543 OFFCURVE",
"231 556 OFFCURVE",
"231 566 CURVE SMOOTH",
"231 584 OFFCURVE",
"220 600 OFFCURVE",
"200 600 CURVE SMOOTH",
"186 600 OFFCURVE",
"173 594 OFFCURVE",
"164 589 CURVE SMOOTH",
"96 551 OFFCURVE",
"43 510 OFFCURVE",
"43 424 CURVE SMOOTH",
"43 366 OFFCURVE",
"80 339 OFFCURVE",
"118 286 CURVE SMOOTH",
"143 251 OFFCURVE",
"158 226 OFFCURVE",
"158 206 CURVE SMOOTH",
"158 150 OFFCURVE",
"122 127 OFFCURVE",
"63 94 CURVE SMOOTH",
"48 85 OFFCURVE",
"40 73 OFFCURVE",
"40 64 CURVE SMOOTH",
"40 47 OFFCURVE",
"52 31 OFFCURVE",
"73 31 CURVE SMOOTH"
);
}
);
width = 301;
}
);
unicode = 11160;
category = Letter;
},
{
glyphname = u11161;
lastChange = "2018-08-07 18:03:19 +0000";
layers = (
{
anchors = (
{
name = Anchor2;
position = "{339, -80}";
}
);
layerId = UUID0;
paths = (
{
closed = 1;
nodes = (
"500 -12 OFFCURVE",
"638 173 OFFCURVE",
"638 332 CURVE SMOOTH",
"638 484 OFFCURVE",
"568 530 OFFCURVE",
"493 530 CURVE SMOOTH",
"396 530 OFFCURVE",
"353 445 OFFCURVE",
"353 366 CURVE SMOOTH",
"353 282 OFFCURVE",
"404 209 OFFCURVE",
"498 209 CURVE SMOOTH",
"535 209 OFFCURVE",
"559 217 OFFCURVE",
"590 227 CURVE",
"590 321 LINE",
"571 304 OFFCURVE",
"542 292 OFFCURVE",
"515 292 CURVE SMOOTH",
"454 292 OFFCURVE",
"436 329 OFFCURVE",
"436 372 CURVE SMOOTH",
"436 427 OFFCURVE",
"466 448 OFFCURVE",
"493 448 CURVE SMOOTH",
"533 448 OFFCURVE",
"554 416 OFFCURVE",
"554 328 CURVE SMOOTH",
"554 170 OFFCURVE",
"417 68 OFFCURVE",
"365 68 CURVE SMOOTH",
"315 68 OFFCURVE",
"242 144 OFFCURVE",
"223 304 CURVE SMOOTH",
"205 452 OFFCURVE",
"176 520 OFFCURVE",
"68 571 CURVE SMOOTH",
"55 577 OFFCURVE",
"43 580 OFFCURVE",
"34 580 CURVE SMOOTH",
"9 580 OFFCURVE",
"0 559 OFFCURVE",
"0 533 CURVE SMOOTH",
"0 523 OFFCURVE",
"12 511 OFFCURVE",
"23 507 CURVE SMOOTH",
"109 472 OFFCURVE",
"129 412 OFFCURVE",
"140 302 CURVE SMOOTH",
"155 147 OFFCURVE",
"235 -12 OFFCURVE",
"359 -12 CURVE SMOOTH"
);
}
);
width = 678;
}
);
unicode = 11161;
category = Letter;
},
{
glyphname = u11162;
lastChange = "2018-08-07 18:03:19 +0000";
layers = (
{
anchors = (
{
name = Anchor2;
position = "{292, -80}";
}
);
layerId = UUID0;
paths = (
{
closed = 1;
nodes = (
"504 -12 OFFCURVE",
"525 0 OFFCURVE",
"525 30 CURVE SMOOTH",
"525 45 OFFCURVE",
"521 67 OFFCURVE",
"518 83 CURVE SMOOTH",
"514 103 OFFCURVE",
"497 274 OFFCURVE",
"497 352 CURVE SMOOTH",
"497 438 OFFCURVE",
"497 489 OFFCURVE",
"494 505 CURVE SMOOTH",
"491 522 OFFCURVE",
"477 530 OFFCURVE",
"459 530 CURVE SMOOTH",
"446 530 OFFCURVE",
"431 522 OFFCURVE",
"425 509 CURVE SMOOTH",
"415 488 OFFCURVE",
"413 436 OFFCURVE",
"413 351 CURVE SMOOTH",
"413 243 OFFCURVE",
"432 86 OFFCURVE",
"443 22 CURVE SMOOTH",
"447 -1 OFFCURVE",
"468 -12 OFFCURVE",
"483 -12 CURVE SMOOTH"
);
},
{
closed = 1;
nodes = (
"164 -12 OFFCURVE",
"185 0 OFFCURVE",
"185 30 CURVE SMOOTH",
"185 45 OFFCURVE",
"181 67 OFFCURVE",
"178 83 CURVE SMOOTH",
"174 103 OFFCURVE",
"157 274 OFFCURVE",
"157 352 CURVE SMOOTH",
"157 438 OFFCURVE",
"157 489 OFFCURVE",
"154 505 CURVE SMOOTH",
"151 522 OFFCURVE",
"137 530 OFFCURVE",
"119 530 CURVE SMOOTH",
"106 530 OFFCURVE",
"91 522 OFFCURVE",
"85 509 CURVE SMOOTH",
"76 488 OFFCURVE",
"73 436 OFFCURVE",
"73 351 CURVE SMOOTH",
"73 243 OFFCURVE",
"93 86 OFFCURVE",
"103 22 CURVE SMOOTH",
"107 -1 OFFCURVE",
"128 -12 OFFCURVE",
"143 -12 CURVE SMOOTH"
);
},
{
closed = 1;
nodes = (
"334 -12 OFFCURVE",
"355 0 OFFCURVE",
"355 30 CURVE SMOOTH",
"355 45 OFFCURVE",
"351 67 OFFCURVE",
"348 83 CURVE SMOOTH",
"344 103 OFFCURVE",
"327 274 OFFCURVE",
"327 352 CURVE SMOOTH",
"327 438 OFFCURVE",
"327 489 OFFCURVE",
"324 505 CURVE SMOOTH",
"321 522 OFFCURVE",
"307 530 OFFCURVE",
"289 530 CURVE SMOOTH",
"276 530 OFFCURVE",
"261 522 OFFCURVE",
"255 509 CURVE SMOOTH",
"245 488 OFFCURVE",
"243 436 OFFCURVE",
"243 351 CURVE SMOOTH",
"243 243 OFFCURVE",
"262 86 OFFCURVE",
"273 22 CURVE SMOOTH",
"277 -1 OFFCURVE",
"298 -12 OFFCURVE",
"313 -12 CURVE SMOOTH"
);
}
);
width = 585;
}
);
unicode = 11162;
category = Letter;
},
{
glyphname = u11163;
lastChange = "2018-08-07 18:03:19 +0000";
layers = (
{
anchors = (
{
name = Anchor2;
position = "{292, -10}";
}
);
layerId = UUID0;
paths = (
{
closed = 1;
nodes = (
"450 53 OFFCURVE",
"487 69 OFFCURVE",
"525 121 CURVE SMOOTH",
"551 156 LINE SMOOTH",
"561 169 OFFCURVE",
"564 182 OFFCURVE",
"564 192 CURVE SMOOTH",
"564 213 OFFCURVE",
"548 227 OFFCURVE",
"533 227 CURVE SMOOTH",
"520 227 OFFCURVE",
"503 219 OFFCURVE",
"490 201 CURVE SMOOTH",
"479 186 LINE SMOOTH",
"475 180 OFFCURVE",
"444 136 OFFCURVE",
"412 136 CURVE SMOOTH",
"389 136 OFFCURVE",
"360 174 OFFCURVE",
"321 194 CURVE",
"356 236 OFFCURVE",
"376 287 OFFCURVE",
"376 344 CURVE SMOOTH",
"376 459 OFFCURVE",
"292 530 OFFCURVE",
"173 530 CURVE SMOOTH",
"126 530 OFFCURVE",
"82 519 OFFCURVE",
"44 497 CURVE SMOOTH",
"27 487 OFFCURVE",
"20 474 OFFCURVE",
"20 461 CURVE SMOOTH",
"20 442 OFFCURVE",
"35 428 OFFCURVE",
"57 428 CURVE SMOOTH",
"61 428 OFFCURVE",
"66 429 OFFCURVE",
"71 431 CURVE SMOOTH",
"104 445 OFFCURVE",
"139 454 OFFCURVE",
"172 454 CURVE SMOOTH",
"234 454 OFFCURVE",
"296 425 OFFCURVE",
"296 336 CURVE SMOOTH",
"296 236 OFFCURVE",
"188 177 OFFCURVE",
"134 159 CURVE SMOOTH",
"122 155 OFFCURVE",
"115 138 OFFCURVE",
"115 129 CURVE SMOOTH",
"115 98 OFFCURVE",
"132 90 OFFCURVE",
"152 90 CURVE SMOOTH",
"162 90 OFFCURVE",
"173 92 OFFCURVE",
"184 97 CURVE SMOOTH",
"204 106 OFFCURVE",
"223 115 OFFCURVE",
"241 126 CURVE",
"249 128 OFFCURVE",
"257 129 OFFCURVE",
"264 129 CURVE SMOOTH",
"323 129 OFFCURVE",
"350 53 OFFCURVE",
"414 53 CURVE SMOOTH"
);
}
);
width = 584;
}
);
unicode = 11163;
category = Letter;
},
{
glyphname = u11164;
lastChange = "2018-08-07 18:03:19 +0000";
layers = (
{
anchors = (
{
name = Anchor2;
position = "{379, 140}";
}
);
layerId = UUID0;
paths = (
{
closed = 1;
nodes = (
"220 178 OFFCURVE",
"278 213 OFFCURVE",
"278 288 CURVE SMOOTH",
"278 330 OFFCURVE",
"265 392 OFFCURVE",
"188 443 CURVE",
"201 448 OFFCURVE",
"214 450 OFFCURVE",
"225 450 CURVE SMOOTH",
"307 450 OFFCURVE",
"335 412 OFFCURVE",
"343 358 CURVE SMOOTH",
"347 332 OFFCURVE",
"355 314 OFFCURVE",
"379 314 CURVE SMOOTH",
"395 314 OFFCURVE",
"407 323 OFFCURVE",
"415 344 CURVE SMOOTH",
"444 423 OFFCURVE",
"481 450 OFFCURVE",
"529 450 CURVE SMOOTH",
"579 450 OFFCURVE",
"599 410 OFFCURVE",
"599 361 CURVE SMOOTH",
"599 321 OFFCURVE",
"581 257 OFFCURVE",
"562 233 CURVE SMOOTH",
"555 224 OFFCURVE",
"552 216 OFFCURVE",
"552 208 CURVE SMOOTH",
"552 190 OFFCURVE",
"569 178 OFFCURVE",
"589 178 CURVE SMOOTH",
"609 178 OFFCURVE",
"623 189 OFFCURVE",
"633 200 CURVE SMOOTH",
"661 231 OFFCURVE",
"683 313 OFFCURVE",
"683 365 CURVE SMOOTH",
"683 455 OFFCURVE",
"631 530 OFFCURVE",
"528 530 CURVE SMOOTH",
"475 530 OFFCURVE",
"424 505 OFFCURVE",
"385 456 CURVE",
"356 500 OFFCURVE",
"306 530 OFFCURVE",
"227 530 CURVE SMOOTH",
"102 530 OFFCURVE",
"40 427 OFFCURVE",
"40 340 CURVE SMOOTH",
"40 242 OFFCURVE",
"98 178 OFFCURVE",
"168 178 CURVE SMOOTH"
);
},
{
closed = 1;
nodes = (
"144 255 OFFCURVE",
"118 286 OFFCURVE",
"118 347 CURVE SMOOTH",
"118 364 OFFCURVE",
"122 379 OFFCURVE",
"128 392 CURVE",
"177 362 OFFCURVE",
"200 316 OFFCURVE",
"200 288 CURVE SMOOTH",
"200 268 OFFCURVE",
"185 255 OFFCURVE",
"170 255 CURVE SMOOTH"
);
}
);
width = 723;
}
);
unicode = 11164;
category = Letter;
},
{
glyphname = u11165;
lastChange = "2018-08-07 18:03:19 +0000";
layers = (
{
anchors = (
{
name = Anchor2;
position = "{253, -80}";
}
);
layerId = UUID0;
paths = (
{
closed = 1;
nodes = (
"370 -12 OFFCURVE",
"433 14 OFFCURVE",
"475 71 CURVE SMOOTH",
"481 79 OFFCURVE",
"486 90 OFFCURVE",
"486 98 CURVE SMOOTH",
"486 122 OFFCURVE",
"469 140 OFFCURVE",
"449 140 CURVE SMOOTH",
"440 140 OFFCURVE",
"430 134 OFFCURVE",
"423 126 CURVE SMOOTH",
"391 90 OFFCURVE",
"349 68 OFFCURVE",
"302 68 CURVE SMOOTH",
"226 68 OFFCURVE",
"191 117 OFFCURVE",
"191 163 CURVE SMOOTH",
"191 209 OFFCURVE",
"211 235 OFFCURVE",
"244 264 CURVE SMOOTH",
"273 289 OFFCURVE",
"304 299 OFFCURVE",
"304 327 CURVE SMOOTH",
"304 344 OFFCURVE",
"290 357 OFFCURVE",
"279 357 CURVE SMOOTH",
"274 357 OFFCURVE",
"271 357 OFFCURVE",
"263 354 CURVE SMOOTH",
"245 348 OFFCURVE",
"233 335 OFFCURVE",
"192 335 CURVE SMOOTH",
"155 335 OFFCURVE",
"124 357 OFFCURVE",
"124 396 CURVE SMOOTH",
"124 449 OFFCURVE",
"165 508 OFFCURVE",
"252 533 CURVE SMOOTH",
"274 539 OFFCURVE",
"278 553 OFFCURVE",
"278 567 CURVE SMOOTH",
"278 584 OFFCURVE",
"269 601 OFFCURVE",
"248 601 CURVE SMOOTH",
"242 601 OFFCURVE",
"231 599 OFFCURVE",
"222 597 CURVE SMOOTH",
"113 569 OFFCURVE",
"40 492 OFFCURVE",
"40 397 CURVE SMOOTH",
"40 327 OFFCURVE",
"88 277 OFFCURVE",
"140 263 CURVE",
"118 232 OFFCURVE",
"107 198 OFFCURVE",
"107 161 CURVE SMOOTH",
"107 45 OFFCURVE",
"194 -12 OFFCURVE",
"296 -12 CURVE SMOOTH"
);
}
);
width = 506;
}
);
unicode = 11165;
category = Letter;
},
{
glyphname = u11166;
lastChange = "2018-08-07 18:03:19 +0000";
layers = (
{
anchors = (
{
name = Anchor2;
position = "{448, 40}";
}
);
layerId = UUID0;
paths = (
{
closed = 1;
nodes = (
"178 100 OFFCURVE",
"207 114 OFFCURVE",
"216 119 CURVE SMOOTH",
"302 162 OFFCURVE",
"378 206 OFFCURVE",
"453 260 CURVE",
"455 183 OFFCURVE",
"507 105 OFFCURVE",
"618 105 CURVE SMOOTH",
"724 105 OFFCURVE",
"826 192 OFFCURVE",
"851 228 CURVE SMOOTH",
"867 251 OFFCURVE",
"867 259 OFFCURVE",
"867 271 CURVE SMOOTH",
"867 286 OFFCURVE",
"861 298 OFFCURVE",
"840 298 CURVE SMOOTH",
"832 298 OFFCURVE",
"821 293 OFFCURVE",
"811 285 CURVE SMOOTH",
"794 272 OFFCURVE",
"706 185 OFFCURVE",
"624 185 CURVE SMOOTH",
"567 185 OFFCURVE",
"537 221 OFFCURVE",
"537 271 CURVE SMOOTH",
"537 326 OFFCURVE",
"593 403 OFFCURVE",
"666 445 CURVE SMOOTH",
"681 454 OFFCURVE",
"699 473 OFFCURVE",
"699 490 CURVE SMOOTH",
"699 511 OFFCURVE",
"688 530 OFFCURVE",
"664 530 CURVE SMOOTH",
"652 530 OFFCURVE",
"633 520 OFFCURVE",
"625 515 CURVE SMOOTH",
"583 488 OFFCURVE",
"544 460 OFFCURVE",
"513 423 CURVE",
"469 382 OFFCURVE",
"425 345 OFFCURVE",
"380 313 CURVE",
"384 329 OFFCURVE",
"386 346 OFFCURVE",
"386 364 CURVE SMOOTH",
"386 443 OFFCURVE",
"327 530 OFFCURVE",
"213 530 CURVE SMOOTH",
"136 530 OFFCURVE",
"70 490 OFFCURVE",
"44 456 CURVE SMOOTH",
"31 439 OFFCURVE",
"30 429 OFFCURVE",
"30 416 CURVE SMOOTH",
"30 398 OFFCURVE",
"42 384 OFFCURVE",
"63 384 CURVE SMOOTH",
"71 384 OFFCURVE",
"80 389 OFFCURVE",
"91 397 CURVE SMOOTH",
"107 408 OFFCURVE",
"147 449 OFFCURVE",
"214 449 CURVE SMOOTH",
"282 449 OFFCURVE",
"302 399 OFFCURVE",
"302 348 CURVE SMOOTH",
"302 276 OFFCURVE",
"239 220 OFFCURVE",
"164 177 CURVE SMOOTH",
"147 167 OFFCURVE",
"131 150 OFFCURVE",
"131 132 CURVE SMOOTH",
"131 110 OFFCURVE",
"142 100 OFFCURVE",
"166 100 CURVE SMOOTH"
);
}
);
width = 897;
}
);
unicode = 11166;
category = Letter;
},
{
glyphname = u11167;
lastChange = "2018-08-07 18:03:19 +0000";
layers = (
{
anchors = (
{
name = Anchor2;
position = "{343, -20}";
}
);
layerId = UUID0;
paths = (
{
closed = 1;
nodes = (
"327 50 OFFCURVE",
"373 144 OFFCURVE",
"373 223 CURVE SMOOTH",
"373 321 OFFCURVE",
"302 383 OFFCURVE",
"200 383 CURVE SMOOTH",
"191 383 OFFCURVE",
"181 382 OFFCURVE",
"172 381 CURVE",
"211 424 OFFCURVE",
"274 450 OFFCURVE",
"348 450 CURVE SMOOTH",
"440 450 OFFCURVE",
"553 409 OFFCURVE",
"553 274 CURVE SMOOTH",
"553 199 OFFCURVE",
"511 137 OFFCURVE",
"461 119 CURVE SMOOTH",
"436 110 OFFCURVE",
"426 94 OFFCURVE",
"426 80 CURVE SMOOTH",
"426 62 OFFCURVE",
"437 50 OFFCURVE",
"462 50 CURVE SMOOTH",
"469 50 OFFCURVE",
"477 51 OFFCURVE",
"486 54 CURVE SMOOTH",
"571 78 OFFCURVE",
"637 158 OFFCURVE",
"637 275 CURVE SMOOTH",
"637 427 OFFCURVE",
"519 530 OFFCURVE",
"347 530 CURVE SMOOTH",
"148 530 OFFCURVE",
"40 385 OFFCURVE",
"40 258 CURVE SMOOTH",
"40 106 OFFCURVE",
"133 50 OFFCURVE",
"213 50 CURVE SMOOTH"
);
},
{
closed = 1;
nodes = (
"170 130 OFFCURVE",
"128 164 OFFCURVE",
"128 264 CURVE SMOOTH",
"128 273 OFFCURVE",
"129 282 OFFCURVE",
"130 290 CURVE",
"151 298 OFFCURVE",
"173 303 OFFCURVE",
"195 303 CURVE SMOOTH",
"245 303 OFFCURVE",
"289 277 OFFCURVE",
"289 217 CURVE SMOOTH",
"289 175 OFFCURVE",
"261 130 OFFCURVE",
"210 130 CURVE SMOOTH"
);
}
);
width = 687;
}
);
unicode = 11167;
category = Letter;
},
{
glyphname = u11168;
lastChange = "2018-08-07 18:03:19 +0000";
layers = (
{
anchors = (
{
name = Anchor2;
position = "{280, 20}";
}
);
layerId = UUID0;
paths = (
{
closed = 1;
nodes = (
"528 -12 OFFCURVE",
"541 4 OFFCURVE",
"541 27 CURVE SMOOTH",
"541 40 OFFCURVE",
"534 53 OFFCURVE",
"523 72 CURVE SMOOTH",
"481 142 OFFCURVE",
"471 228 OFFCURVE",
"471 313 CURVE SMOOTH",
"471 350 OFFCURVE",
"483 397 OFFCURVE",
"483 437 CURVE SMOOTH",
"483 488 OFFCURVE",
"466 530 OFFCURVE",
"408 530 CURVE SMOOTH",
"380 530 OFFCURVE",
"351 522 OFFCURVE",
"313 479 CURVE SMOOTH",
"284 447 OFFCURVE",
"233 370 OFFCURVE",
"178 286 CURVE",
"162 364 OFFCURVE",
"138 447 OFFCURVE",
"108 507 CURVE SMOOTH",
"76 571 OFFCURVE",
"53 580 OFFCURVE",
"31 580 CURVE SMOOTH",
"21 580 OFFCURVE",
"0 575 OFFCURVE",
"0 550 CURVE SMOOTH",
"0 535 OFFCURVE",
"8 517 OFFCURVE",
"29 471 CURVE SMOOTH",
"73 377 OFFCURVE",
"102 246 OFFCURVE",
"115 171 CURVE SMOOTH",
"119 148 OFFCURVE",
"135 136 OFFCURVE",
"153 136 CURVE SMOOTH",
"167 136 OFFCURVE",
"178 141 OFFCURVE",
"192 162 CURVE SMOOTH",
"215 197 OFFCURVE",
"243 243 OFFCURVE",
"272 289 CURVE SMOOTH",
"297 328 OFFCURVE",
"322 365 OFFCURVE",
"348 399 CURVE SMOOTH",
"365 421 OFFCURVE",
"375 430 OFFCURVE",
"381 430 CURVE SMOOTH",
"385 430 OFFCURVE",
"399 430 OFFCURVE",
"399 414 CURVE SMOOTH",
"399 412 OFFCURVE",
"399 409 OFFCURVE",
"398 406 CURVE SMOOTH",
"393 383 OFFCURVE",
"387 332 OFFCURVE",
"387 295 CURVE SMOOTH",
"387 189 OFFCURVE",
"424 66 OFFCURVE",
"461 17 CURVE SMOOTH",
"473 1 OFFCURVE",
"489 -12 OFFCURVE",
"507 -12 CURVE SMOOTH"
);
}
);
width = 561;
}
);
unicode = 11168;
category = Letter;
},
{
glyphname = u11169;
lastChange = "2018-08-07 18:03:19 +0000";
layers = (
{
anchors = (
{
name = Anchor2;
position = "{379, 140}";
}
);
layerId = UUID0;
paths = (
{
closed = 1;
nodes = (
"241 178 OFFCURVE",
"277 229 OFFCURVE",
"277 307 CURVE SMOOTH",
"277 343 OFFCURVE",
"268 392 OFFCURVE",
"238 450 CURVE",
"305 447 OFFCURVE",
"333 414 OFFCURVE",
"345 347 CURVE SMOOTH",
"348 330 OFFCURVE",
"359 318 OFFCURVE",
"379 318 CURVE SMOOTH",
"395 318 OFFCURVE",
"409 326 OFFCURVE",
"417 347 CURVE SMOOTH",
"446 426 OFFCURVE",
"482 450 OFFCURVE",
"530 450 CURVE SMOOTH",
"580 450 OFFCURVE",
"600 410 OFFCURVE",
"600 361 CURVE SMOOTH",
"600 321 OFFCURVE",
"582 257 OFFCURVE",
"563 233 CURVE SMOOTH",
"556 224 OFFCURVE",
"553 216 OFFCURVE",
"553 208 CURVE SMOOTH",
"553 190 OFFCURVE",
"570 178 OFFCURVE",
"590 178 CURVE SMOOTH",
"610 178 OFFCURVE",
"624 189 OFFCURVE",
"634 200 CURVE SMOOTH",
"662 231 OFFCURVE",
"684 313 OFFCURVE",
"684 365 CURVE SMOOTH",
"684 455 OFFCURVE",
"632 530 OFFCURVE",
"529 530 CURVE SMOOTH",
"474 530 OFFCURVE",
"422 506 OFFCURVE",
"384 455 CURVE",
"353 500 OFFCURVE",
"305 530 OFFCURVE",
"234 530 CURVE SMOOTH",
"218 530 OFFCURVE",
"204 528 OFFCURVE",
"191 525 CURVE",
"171 552 OFFCURVE",
"147 580 OFFCURVE",
"118 609 CURVE SMOOTH",
"83 644 OFFCURVE",
"60 655 OFFCURVE",
"49 655 CURVE SMOOTH",
"37 655 OFFCURVE",
"16 649 OFFCURVE",
"16 629 CURVE SMOOTH",
"16 615 OFFCURVE",
"26 593 OFFCURVE",
"58 563 CURVE SMOOTH",
"81 541 OFFCURVE",
"101 518 OFFCURVE",
"119 495 CURVE",
"65 456 OFFCURVE",
"40 392 OFFCURVE",
"40 336 CURVE SMOOTH",
"40 238 OFFCURVE",
"98 178 OFFCURVE",
"168 178 CURVE SMOOTH"
);
},
{
closed = 1;
nodes = (
"144 255 OFFCURVE",
"118 291 OFFCURVE",
"118 342 CURVE SMOOTH",
"118 382 OFFCURVE",
"136 410 OFFCURVE",
"161 428 CURVE",
"186 381 OFFCURVE",
"198 337 OFFCURVE",
"198 303 CURVE SMOOTH",
"198 269 OFFCURVE",
"185 255 OFFCURVE",
"170 255 CURVE SMOOTH"
);
}
);
width = 724;
}
);
unicode = 11169;
category = Letter;
},
{
glyphname = u1116B;
lastChange = "2018-08-07 18:03:19 +0000";
layers = (
{
anchors = (
{
name = Anchor2;
position = "{224, -80}";
}
);
layerId = UUID0;
paths = (
{
closed = 1;
nodes = (
"341 -11 OFFCURVE",
"389 14 OFFCURVE",
"419 53 CURVE SMOOTH",
"425 61 OFFCURVE",
"430 72 OFFCURVE",
"430 80 CURVE SMOOTH",
"430 104 OFFCURVE",
"413 122 OFFCURVE",
"393 122 CURVE SMOOTH",
"384 122 OFFCURVE",
"374 116 OFFCURVE",
"367 108 CURVE SMOOTH",
"350 89 OFFCURVE",
"322 69 OFFCURVE",
"270 69 CURVE SMOOTH",
"214 69 OFFCURVE",
"148 106 OFFCURVE",
"130 219 CURVE",
"153 213 OFFCURVE",
"176 210 OFFCURVE",
"206 210 CURVE SMOOTH",
"317 210 OFFCURVE",
"369 290 OFFCURVE",
"369 374 CURVE SMOOTH",
"369 453 OFFCURVE",
"326 531 OFFCURVE",
"224 531 CURVE SMOOTH",
"124 531 OFFCURVE",
"41 438 OFFCURVE",
"41 286 CURVE SMOOTH",
"41 80 OFFCURVE",
"143 -11 OFFCURVE",
"267 -11 CURVE SMOOTH"
);
},
{
closed = 1;
nodes = (
"168 290 OFFCURVE",
"145 295 OFFCURVE",
"126 304 CURVE",
"132 394 OFFCURVE",
"177 451 OFFCURVE",
"221 451 CURVE SMOOTH",
"263 451 OFFCURVE",
"285 422 OFFCURVE",
"285 380 CURVE SMOOTH",
"285 337 OFFCURVE",
"262 290 OFFCURVE",
"190 290 CURVE SMOOTH"
);
}
);
width = 449;
}
);
unicode = 1116B;
category = Letter;
},
{
glyphname = u1116C;
lastChange = "2018-08-07 18:03:19 +0000";
layers = (
{
anchors = (
{
name = Anchor2;
position = "{299, -80}";
}
);
layerId = UUID0;
paths = (
{
closed = 1;
nodes = (
"173 -12 OFFCURVE",
"185 20 OFFCURVE",
"192 61 CURVE SMOOTH",
"215 191 LINE SMOOTH",
"238 322 OFFCURVE",
"302 450 OFFCURVE",
"397 450 CURVE SMOOTH",
"443 450 OFFCURVE",
"464 424 OFFCURVE",
"464 349 CURVE SMOOTH",
"464 279 OFFCURVE",
"443 150 OFFCURVE",
"432 91 CURVE SMOOTH",
"427 63 OFFCURVE",
"425 40 OFFCURVE",
"425 26 CURVE SMOOTH",
"425 0 OFFCURVE",
"439 -12 OFFCURVE",
"455 -12 CURVE SMOOTH",
"492 -12 OFFCURVE",
"504 7 OFFCURVE",
"516 78 CURVE SMOOTH",
"526 136 OFFCURVE",
"548 271 OFFCURVE",
"548 364 CURVE SMOOTH",
"548 452 OFFCURVE",
"506 530 OFFCURVE",
"403 530 CURVE SMOOTH",
"302 530 OFFCURVE",
"233 468 OFFCURVE",
"189 376 CURVE",
"172 437 OFFCURVE",
"139 493 OFFCURVE",
"77 547 CURVE SMOOTH",
"70 553 OFFCURVE",
"58 555 OFFCURVE",
"51 555 CURVE SMOOTH",
"26 555 OFFCURVE",
"10 542 OFFCURVE",
"10 521 CURVE SMOOTH",
"10 511 OFFCURVE",
"14 498 OFFCURVE",
"23 488 CURVE SMOOTH",
"87 422 OFFCURVE",
"127 355 OFFCURVE",
"127 197 CURVE SMOOTH",
"127 173 OFFCURVE",
"125 150 OFFCURVE",
"120 125 CURVE SMOOTH",
"110 74 LINE SMOOTH",
"107 60 OFFCURVE",
"105 42 OFFCURVE",
"105 33 CURVE SMOOTH",
"105 10 OFFCURVE",
"113 -12 OFFCURVE",
"139 -12 CURVE SMOOTH"
);
}
);
width = 598;
}
);
unicode = 1116C;
category = Letter;
},
{
glyphname = u1116D;
lastChange = "2018-08-07 18:03:19 +0000";
layers = (
{
anchors = (
{
name = Anchor2;
position = "{236, 30}";
}
);
layerId = UUID0;
paths = (
{
closed = 1;
nodes = (
"202 98 OFFCURVE",
"227 103 OFFCURVE",
"238 106 CURVE SMOOTH",
"380 146 OFFCURVE",
"438 249 OFFCURVE",
"438 343 CURVE SMOOTH",
"438 442 OFFCURVE",
"377 530 OFFCURVE",
"240 530 CURVE SMOOTH",
"147 530 OFFCURVE",
"72 483 OFFCURVE",
"44 452 CURVE SMOOTH",
"26 432 OFFCURVE",
"26 422 OFFCURVE",
"26 411 CURVE SMOOTH",
"26 394 OFFCURVE",
"41 385 OFFCURVE",
"55 385 CURVE SMOOTH",
"62 385 OFFCURVE",
"74 390 OFFCURVE",
"85 397 CURVE SMOOTH",
"124 423 OFFCURVE",
"166 451 OFFCURVE",
"239 451 CURVE SMOOTH",
"317 451 OFFCURVE",
"354 407 OFFCURVE",
"354 334 CURVE SMOOTH",
"354 270 OFFCURVE",
"315 208 OFFCURVE",
"196 175 CURVE SMOOTH",
"176 169 OFFCURVE",
"156 154 OFFCURVE",
"156 139 CURVE SMOOTH",
"156 121 OFFCURVE",
"167 98 OFFCURVE",
"189 98 CURVE SMOOTH"
);
}
);
width = 472;
}
);
unicode = 1116D;
category = Letter;
},
{
glyphname = u1116E;
lastChange = "2018-08-07 18:03:19 +0000";
layers = (
{
anchors = (
{
name = Anchor2;
position = "{345, 130}";
}
);
layerId = UUID0;
paths = (
{
closed = 1;
nodes = (
"509 159 OFFCURVE",
"524 166 OFFCURVE",
"533 171 CURVE SMOOTH",
"624 226 OFFCURVE",
"653 280 OFFCURVE",
"653 366 CURVE SMOOTH",
"653 456 OFFCURVE",
"591 531 OFFCURVE",
"493 531 CURVE SMOOTH",
"435 531 OFFCURVE",
"385 507 OFFCURVE",
"348 458 CURVE",
"317 502 OFFCURVE",
"271 531 OFFCURVE",
"205 531 CURVE SMOOTH",
"107 531 OFFCURVE",
"40 456 OFFCURVE",
"40 366 CURVE SMOOTH",
"40 280 OFFCURVE",
"78 209 OFFCURVE",
"166 175 CURVE SMOOTH",
"175 171 OFFCURVE",
"184 169 OFFCURVE",
"192 169 CURVE SMOOTH",
"216 169 OFFCURVE",
"231 184 OFFCURVE",
"231 202 CURVE SMOOTH",
"231 212 OFFCURVE",
"227 227 OFFCURVE",
"214 234 CURVE SMOOTH",
"174 255 OFFCURVE",
"124 291 OFFCURVE",
"124 362 CURVE SMOOTH",
"124 411 OFFCURVE",
"159 451 OFFCURVE",
"209 451 CURVE SMOOTH",
"256 451 OFFCURVE",
"293 421 OFFCURVE",
"308 354 CURVE SMOOTH",
"313 331 OFFCURVE",
"323 319 OFFCURVE",
"345 319 CURVE SMOOTH",
"361 319 OFFCURVE",
"375 327 OFFCURVE",
"383 348 CURVE SMOOTH",
"412 427 OFFCURVE",
"441 451 OFFCURVE",
"489 451 CURVE SMOOTH",
"539 451 OFFCURVE",
"569 411 OFFCURVE",
"569 362 CURVE SMOOTH",
"569 291 OFFCURVE",
"519 255 OFFCURVE",
"479 234 CURVE SMOOTH",
"466 227 OFFCURVE",
"462 212 OFFCURVE",
"462 202 CURVE SMOOTH",
"462 184 OFFCURVE",
"477 159 OFFCURVE",
"501 159 CURVE SMOOTH"
);
}
);
width = 693;
}
);
unicode = 1116E;
category = Letter;
},
{
glyphname = u1116F;
lastChange = "2018-08-07 18:02:59 +0000";
layers = (
{
layerId = UUID0;
paths = (
{
closed = 1;
nodes = (
"548 -14 OFFCURVE",
"562 0 OFFCURVE",
"562 19 CURVE SMOOTH",
"562 35 OFFCURVE",
"556 49 OFFCURVE",
"541 53 CURVE SMOOTH",
"442 81 OFFCURVE",
"408 120 OFFCURVE",
"408 210 CURVE SMOOTH",
"408 284 OFFCURVE",
"454 436 OFFCURVE",
"463 464 CURVE SMOOTH",
"466 475 OFFCURVE",
"467 483 OFFCURVE",
"467 491 CURVE SMOOTH",
"467 523 OFFCURVE",
"445 530 OFFCURVE",
"428 530 CURVE SMOOTH",
"409 530 OFFCURVE",
"394 516 OFFCURVE",
"385 480 CURVE SMOOTH",
"369 419 LINE SMOOTH",
"360 383 OFFCURVE",
"347 330 OFFCURVE",
"337 280 CURVE",
"305 218 OFFCURVE",
"241 200 OFFCURVE",
"203 200 CURVE SMOOTH",
"156 200 OFFCURVE",
"124 223 OFFCURVE",
"124 302 CURVE SMOOTH",
"124 398 OFFCURVE",
"153 481 OFFCURVE",
"153 497 CURVE SMOOTH",
"153 519 OFFCURVE",
"133 530 OFFCURVE",
"115 530 CURVE SMOOTH",
"94 530 OFFCURVE",
"75 516 OFFCURVE",
"69 490 CURVE SMOOTH",
"58 444 OFFCURVE",
"40 349 OFFCURVE",
"40 295 CURVE SMOOTH",
"40 211 OFFCURVE",
"69 120 OFFCURVE",
"199 120 CURVE SMOOTH",
"241 120 OFFCURVE",
"293 139 OFFCURVE",
"329 166 CURVE",
"337 84 OFFCURVE",
"379 30 OFFCURVE",
"445 4 CURVE SMOOTH",
"467 -5 OFFCURVE",
"494 -14 OFFCURVE",
"518 -14 CURVE SMOOTH"
);
},
{
closed = 1;
nodes = (
"256 -85 OFFCURVE",
"285 -65 OFFCURVE",
"285 -17 CURVE SMOOTH",
"285 32 OFFCURVE",
"256 50 OFFCURVE",
"222 50 CURVE SMOOTH",
"188 50 OFFCURVE",
"161 32 OFFCURVE",
"161 -17 CURVE SMOOTH",
"161 -65 OFFCURVE",
"188 -85 OFFCURVE",
"222 -85 CURVE SMOOTH"
);
}
);
width = 542;
}
);
unicode = 1116F;
category = Letter;
},
{
glyphname = u11170;
lastChange = "2018-08-07 18:03:19 +0000";
layers = (
{
anchors = (
{
name = Anchor2;
position = "{242, -10}";
}
);
layerId = UUID0;
paths = (
{
closed = 1;
nodes = (
"275 63 OFFCURVE",
"286 65 OFFCURVE",
"305 75 CURVE SMOOTH",
"332 89 OFFCURVE",
"445 149 OFFCURVE",
"445 264 CURVE SMOOTH",
"445 352 OFFCURVE",
"397 387 OFFCURVE",
"331 387 CURVE SMOOTH",
"262 387 OFFCURVE",
"220 346 OFFCURVE",
"176 346 CURVE SMOOTH",
"139 346 OFFCURVE",
"124 369 OFFCURVE",
"124 407 CURVE SMOOTH",
"124 452 OFFCURVE",
"174 535 OFFCURVE",
"304 581 CURVE SMOOTH",
"326 589 OFFCURVE",
"343 604 OFFCURVE",
"343 623 CURVE SMOOTH",
"343 638 OFFCURVE",
"333 655 OFFCURVE",
"307 655 CURVE SMOOTH",
"296 655 OFFCURVE",
"282 651 OFFCURVE",
"263 644 CURVE SMOOTH",
"128 591 OFFCURVE",
"40 494 OFFCURVE",
"40 394 CURVE SMOOTH",
"40 333 OFFCURVE",
"86 266 OFFCURVE",
"171 266 CURVE SMOOTH",
"255 266 OFFCURVE",
"273 307 OFFCURVE",
"321 307 CURVE SMOOTH",
"347 307 OFFCURVE",
"360 290 OFFCURVE",
"360 263 CURVE SMOOTH",
"360 192 OFFCURVE",
"291 152 OFFCURVE",
"268 141 CURVE SMOOTH",
"230 123 OFFCURVE",
"221 107 OFFCURVE",
"221 91 CURVE SMOOTH",
"221 75 OFFCURVE",
"237 63 OFFCURVE",
"261 63 CURVE SMOOTH"
);
}
);
width = 485;
}
);
unicode = 11170;
category = Letter;
},
{
glyphname = u11171;
lastChange = "2018-08-07 18:03:19 +0000";
layers = (
{
anchors = (
{
name = Anchor2;
position = "{250, 100}";
}
);
layerId = UUID0;
paths = (
{
closed = 1;
nodes = (
"180 171 OFFCURVE",
"188 173 OFFCURVE",
"197 176 CURVE SMOOTH",
"279 207 OFFCURVE",
"365 263 OFFCURVE",
"441 331 CURVE SMOOTH",
"448 338 OFFCURVE",
"461 356 OFFCURVE",
"461 371 CURVE SMOOTH",
"461 394 OFFCURVE",
"441 414 OFFCURVE",
"423 414 CURVE SMOOTH",
"411 414 OFFCURVE",
"399 405 OFFCURVE",
"393 400 CURVE SMOOTH",
"308 327 OFFCURVE",
"233 286 OFFCURVE",
"149 245 CURVE SMOOTH",
"135 238 OFFCURVE",
"131 223 OFFCURVE",
"131 211 CURVE SMOOTH",
"131 190 OFFCURVE",
"147 171 OFFCURVE",
"173 171 CURVE SMOOTH"
);
},
{
closed = 1;
nodes = (
"89 337 OFFCURVE",
"97 339 OFFCURVE",
"106 342 CURVE SMOOTH",
"189 372 OFFCURVE",
"279 434 OFFCURVE",
"350 497 CURVE SMOOTH",
"357 504 OFFCURVE",
"370 522 OFFCURVE",
"370 537 CURVE SMOOTH",
"370 560 OFFCURVE",
"350 580 OFFCURVE",
"332 580 CURVE SMOOTH",
"320 580 OFFCURVE",
"308 571 OFFCURVE",
"302 566 CURVE SMOOTH",
"216 492 OFFCURVE",
"142 452 OFFCURVE",
"58 411 CURVE SMOOTH",
"44 404 OFFCURVE",
"40 389 OFFCURVE",
"40 377 CURVE SMOOTH",
"40 356 OFFCURVE",
"56 337 OFFCURVE",
"82 337 CURVE SMOOTH"
);
}
);
width = 501;
}
);
unicode = 11171;
category = Letter;
},
{
glyphname = u11172;
lastChange = "2018-08-07 18:03:19 +0000";
layers = (
{
anchors = (
{
name = Anchor2;
position = "{325, 40}";
}
);
components = (
{
name = u11160;
}
);
layerId = UUID0;
paths = (
{
closed = 1;
nodes = (
"536 154 OFFCURVE",
"611 220 OFFCURVE",
"611 304 CURVE SMOOTH",
"611 388 OFFCURVE",
"536 454 OFFCURVE",
"447 454 CURVE SMOOTH",
"359 454 OFFCURVE",
"284 388 OFFCURVE",
"284 304 CURVE SMOOTH",
"284 220 OFFCURVE",
"359 154 OFFCURVE",
"447 154 CURVE SMOOTH"
);
},
{
closed = 1;
nodes = (
"400 228 OFFCURVE",
"364 261 OFFCURVE",
"364 304 CURVE SMOOTH",
"364 347 OFFCURVE",
"400 380 OFFCURVE",
"447 380 CURVE SMOOTH",
"494 380 OFFCURVE",
"531 347 OFFCURVE",
"531 304 CURVE SMOOTH",
"531 261 OFFCURVE",
"494 228 OFFCURVE",
"447 228 CURVE SMOOTH"
);
}
);
width = 651;
}
);
unicode = 11172;
category = Letter;
},
{
glyphname = u11173;
lastChange = "2018-08-07 18:03:16 +0000";
layers = (
{
anchors = (
{
name = _Anchor2;
position = "{-63, -30}";
}
);
layerId = UUID0;
paths = (
{
closed = 1;
nodes = (
"-29 -165 OFFCURVE",
"0 -145 OFFCURVE",
"0 -97 CURVE SMOOTH",
"0 -48 OFFCURVE",
"-29 -30 OFFCURVE",
"-63 -30 CURVE SMOOTH",
"-97 -30 OFFCURVE",
"-124 -48 OFFCURVE",
"-124 -97 CURVE SMOOTH",
"-124 -145 OFFCURVE",
"-97 -165 OFFCURVE",
"-63 -165 CURVE SMOOTH"
);
}
);
width = 0;
}
);
unicode = 11173;
category = Mark;
subCategory = Nonspacing;
},
{
glyphname = u11174;
lastChange = "2018-08-07 18:02:59 +0000";
layers = (
{
layerId = UUID0;
paths = (
{
closed = 1;
nodes = (
"135 180 OFFCURVE",
"164 200 OFFCURVE",
"164 248 CURVE SMOOTH",
"164 297 OFFCURVE",
"135 315 OFFCURVE",
"101 315 CURVE SMOOTH",
"67 315 OFFCURVE",
"40 297 OFFCURVE",
"40 248 CURVE SMOOTH",
"40 200 OFFCURVE",
"67 180 OFFCURVE",
"101 180 CURVE SMOOTH"
);
}
);
width = 204;
}
);
unicode = 11174;
category = Letter;
},
{
glyphname = u11175;
lastChange = "2018-08-07 18:02:59 +0000";
layers = (
{
layerId = UUID0;
paths = (
{
closed = 1;
nodes = (
"216 -12 OFFCURVE",
"255 17 OFFCURVE",
"301 55 CURVE SMOOTH",
"317 69 OFFCURVE",
"335 84 OFFCURVE",
"353 99 CURVE SMOOTH",
"363 108 OFFCURVE",
"373 128 OFFCURVE",
"373 139 CURVE SMOOTH",
"373 162 OFFCURVE",
"353 182 OFFCURVE",
"335 182 CURVE SMOOTH",
"325 182 OFFCURVE",
"311 173 OFFCURVE",
"305 168 CURVE SMOOTH",
"260 128 OFFCURVE",
"216 89 OFFCURVE",
"200 89 CURVE SMOOTH",
"189 89 OFFCURVE",
"184 108 OFFCURVE",
"178 156 CURVE SMOOTH",
"162 277 OFFCURVE",
"154 383 OFFCURVE",
"154 485 CURVE SMOOTH",
"154 528 OFFCURVE",
"154 559 OFFCURVE",
"151 575 CURVE SMOOTH",
"148 592 OFFCURVE",
"135 600 OFFCURVE",
"116 600 CURVE SMOOTH",
"101 600 OFFCURVE",
"86 592 OFFCURVE",
"80 579 CURVE SMOOTH",
"70 558 OFFCURVE",
"70 526 OFFCURVE",
"70 484 CURVE SMOOTH",
"70 333 OFFCURVE",
"89 169 OFFCURVE",
"111 47 CURVE SMOOTH",
"115 24 OFFCURVE",
"136 -12 OFFCURVE",
"175 -12 CURVE SMOOTH"
);
}
);
width = 403;
}
);
unicode = 11175;
category = Letter;
},
{
glyphname = u11176;
lastChange = "2018-08-07 18:02:59 +0000";
layers = (
{
layerId = UUID0;
paths = (
{
closed = 1;
nodes = (
"858 -12 OFFCURVE",
"1040 171 OFFCURVE",
"1040 376 CURVE SMOOTH",
"1040 455 OFFCURVE",
"999 530 OFFCURVE",
"890 530 CURVE SMOOTH",
"843 530 OFFCURVE",
"800 514 OFFCURVE",
"766 481 CURVE",
"748 509 OFFCURVE",
"716 530 OFFCURVE",
"665 530 CURVE SMOOTH",
"618 530 OFFCURVE",
"579 514 OFFCURVE",
"548 482 CURVE",
"529 509 OFFCURVE",
"497 530 OFFCURVE",
"447 530 CURVE SMOOTH",
"389 530 OFFCURVE",
"352 504 OFFCURVE",
"323 468 CURVE",
"302 505 OFFCURVE",
"263 530 OFFCURVE",
"212 530 CURVE SMOOTH",
"142 530 OFFCURVE",
"88 480 OFFCURVE",
"88 382 CURVE SMOOTH",
"88 326 OFFCURVE",
"112 264 OFFCURVE",
"162 225 CURVE",
"135 195 OFFCURVE",
"105 167 OFFCURVE",
"76 144 CURVE SMOOTH",
"49 122 OFFCURVE",
"40 105 OFFCURVE",
"40 91 CURVE SMOOTH",
"40 73 OFFCURVE",
"57 62 OFFCURVE",
"71 62 CURVE SMOOTH",
"98 62 OFFCURVE",
"129 89 OFFCURVE",
"150 108 CURVE SMOOTH",
"213 164 OFFCURVE",
"255 210 OFFCURVE",
"297 270 CURVE SMOOTH",
"357 356 OFFCURVE",
"378 450 OFFCURVE",
"437 450 CURVE SMOOTH",
"472 450 OFFCURVE",
"491 422 OFFCURVE",
"491 394 CURVE SMOOTH",
"491 390 OFFCURVE",
"491 388 OFFCURVE",
"490 382 CURVE",
"486 369 OFFCURVE",
"484 356 OFFCURVE",
"484 346 CURVE SMOOTH",
"484 327 OFFCURVE",
"500 313 OFFCURVE",
"521 313 CURVE SMOOTH",
"537 313 OFFCURVE",
"551 321 OFFCURVE",
"559 342 CURVE SMOOTH",
"588 421 OFFCURVE",
"622 450 OFFCURVE",
"655 450 CURVE SMOOTH",
"690 450 OFFCURVE",
"709 422 OFFCURVE",
"709 394 CURVE SMOOTH",
"709 392 OFFCURVE",
"709 390 OFFCURVE",
"708 386 CURVE SMOOTH",
"705 371 LINE SMOOTH",
"704 366 OFFCURVE",
"703 353 OFFCURVE",
"703 346 CURVE SMOOTH",
"703 327 OFFCURVE",
"719 313 OFFCURVE",
"740 313 CURVE SMOOTH",
"756 313 OFFCURVE",
"770 321 OFFCURVE",
"778 342 CURVE SMOOTH",
"807 421 OFFCURVE",
"847 450 OFFCURVE",
"886 450 CURVE SMOOTH",
"934 450 OFFCURVE",
"956 414 OFFCURVE",
"956 378 CURVE SMOOTH",
"956 210 OFFCURVE",
"799 68 OFFCURVE",
"623 68 CURVE SMOOTH",
"557 68 OFFCURVE",
"509 89 OFFCURVE",
"473 120 CURVE SMOOTH",
"465 127 OFFCURVE",
"457 129 OFFCURVE",
"449 129 CURVE SMOOTH",
"429 129 OFFCURVE",
"412 110 OFFCURVE",
"412 89 CURVE SMOOTH",
"412 79 OFFCURVE",
"416 69 OFFCURVE",
"426 59 CURVE SMOOTH",
"473 15 OFFCURVE",
"538 -12 OFFCURVE",
"627 -12 CURVE SMOOTH"
);
},
{
closed = 1;
nodes = (
"191 309 OFFCURVE",
"172 341 OFFCURVE",
"172 383 CURVE SMOOTH",
"172 424 OFFCURVE",
"190 450 OFFCURVE",
"216 450 CURVE SMOOTH",
"246 450 OFFCURVE",
"258 421 OFFCURVE",
"258 390 CURVE SMOOTH",
"258 367 OFFCURVE",
"251 342 OFFCURVE",
"240 325 CURVE SMOOTH",
"216 289 LINE"
);
}
);
width = 1080;
}
);
unicode = 11176;
category = Letter;
},
{
glyphname = uni0966;
lastChange = "2018-08-07 18:02:59 +0000";
layers = (
{
layerId = UUID0;
paths = (
{
closed = 1;
nodes = (
"381 91 OFFCURVE",
"463 171 OFFCURVE",
"463 285 CURVE SMOOTH",
"463 400 OFFCURVE",
"379 482 OFFCURVE",
"268 482 CURVE SMOOTH",
"156 482 OFFCURVE",
"75 402 OFFCURVE",
"75 287 CURVE SMOOTH",
"75 171 OFFCURVE",
"156 91 OFFCURVE",
"269 91 CURVE SMOOTH"
);
},
{
closed = 1;
nodes = (
"200 164 OFFCURVE",
"157 213 OFFCURVE",
"157 284 CURVE SMOOTH",
"157 356 OFFCURVE",
"204 407 OFFCURVE",
"270 407 CURVE SMOOTH",
"337 407 OFFCURVE",
"381 358 OFFCURVE",
"381 287 CURVE SMOOTH",
"381 216 OFFCURVE",
"333 164 OFFCURVE",
"268 164 CURVE SMOOTH"
);
}
);
width = 551;
}
);
unicode = 0966;
category = Letter;
},
{
glyphname = uni0967;
lastChange = "2018-08-07 18:02:59 +0000";
layers = (
{
layerId = UUID0;
paths = (
{
closed = 1;
nodes = (
"345 -78 OFFCURVE",
"359 -72 OFFCURVE",
"370 -54 CURVE SMOOTH",
"392 -20 OFFCURVE",
"399 5 OFFCURVE",
"399 33 CURVE SMOOTH",
"399 82 OFFCURVE",
"380 120 OFFCURVE",
"332 156 CURVE SMOOTH",
"250 218 LINE",
"395 323 OFFCURVE",
"423 368 OFFCURVE",
"423 447 CURVE SMOOTH",
"423 523 OFFCURVE",
"366 580 OFFCURVE",
"270 580 CURVE SMOOTH",
"182 580 OFFCURVE",
"127 526 OFFCURVE",
"127 465 CURVE SMOOTH",
"127 417 OFFCURVE",
"147 379 OFFCURVE",
"212 346 CURVE SMOOTH",
"217 343 OFFCURVE",
"222 342 OFFCURVE",
"225 342 CURVE SMOOTH",
"243 342 OFFCURVE",
"265 358 OFFCURVE",
"265 378 CURVE SMOOTH",
"265 392 OFFCURVE",
"259 395 OFFCURVE",
"241 404 CURVE SMOOTH",
"214 418 OFFCURVE",
"200 436 OFFCURVE",
"200 461 CURVE SMOOTH",
"200 490 OFFCURVE",
"223 516 OFFCURVE",
"268 516 CURVE SMOOTH",
"312 516 OFFCURVE",
"342 489 OFFCURVE",
"342 446 CURVE SMOOTH",
"342 377 OFFCURVE",
"291 335 OFFCURVE",
"141 238 CURVE",
"137 216 LINE",
"276 102 LINE SMOOTH",
"308 75 OFFCURVE",
"316 60 OFFCURVE",
"316 33 CURVE SMOOTH",
"316 10 OFFCURVE",
"309 -12 OFFCURVE",
"293 -30 CURVE",
"292 -32 OFFCURVE",
"291 -35 OFFCURVE",
"291 -38 CURVE SMOOTH",
"291 -57 OFFCURVE",
"309 -78 OFFCURVE",
"333 -78 CURVE SMOOTH"
);
}
);
width = 551;
}
);
unicode = 0967;
category = Letter;
},
{
glyphname = uni0968;
lastChange = "2018-08-07 18:02:59 +0000";
layers = (
{
layerId = UUID0;
paths = (
{
closed = 1;
nodes = (
"448 -16 OFFCURVE",
"464 0 OFFCURVE",
"464 19 CURVE SMOOTH",
"464 27 OFFCURVE",
"462 35 OFFCURVE",
"456 43 CURVE SMOOTH",
"408 111 OFFCURVE",
"371 153 OFFCURVE",
"321 203 CURVE",
"402 244 OFFCURVE",
"449 302 OFFCURVE",
"449 388 CURVE SMOOTH",
"449 516 OFFCURVE",
"363 580 OFFCURVE",
"249 580 CURVE SMOOTH",
"198 580 OFFCURVE",
"148 573 OFFCURVE",
"103 545 CURVE SMOOTH",
"90 537 OFFCURVE",
"87 529 OFFCURVE",
"87 519 CURVE SMOOTH",
"87 498 OFFCURVE",
"102 482 OFFCURVE",
"119 482 CURVE SMOOTH",
"122 482 OFFCURVE",
"126 483 OFFCURVE",
"129 484 CURVE SMOOTH",
"175 505 OFFCURVE",
"208 509 OFFCURVE",
"249 509 CURVE SMOOTH",
"319 509 OFFCURVE",
"366 467 OFFCURVE",
"366 390 CURVE SMOOTH",
"366 329 OFFCURVE",
"325 284 OFFCURVE",
"262 261 CURVE",
"226 288 OFFCURVE",
"202 299 OFFCURVE",
"174 299 CURVE SMOOTH",
"135 299 OFFCURVE",
"110 276 OFFCURVE",
"110 240 CURVE SMOOTH",
"110 200 OFFCURVE",
"147 174 OFFCURVE",
"193 174 CURVE SMOOTH",
"210 174 OFFCURVE",
"228 175 OFFCURVE",
"245 178 CURVE",
"293 132 OFFCURVE",
"333 88 OFFCURVE",
"389 2 CURVE SMOOTH",
"398 -12 OFFCURVE",
"412 -16 OFFCURVE",
"423 -16 CURVE SMOOTH"
);
}
);
width = 551;
}
);
unicode = 0968;
category = Letter;
},
{
glyphname = uni0969;
lastChange = "2018-08-07 18:02:59 +0000";
layers = (
{
layerId = UUID0;
paths = (
{
closed = 1;
nodes = (
"407 -58 OFFCURVE",
"429 -42 OFFCURVE",
"429 -20 CURVE SMOOTH",
"429 -16 OFFCURVE",
"428 -11 OFFCURVE",
"426 -8 CURVE SMOOTH",
"393 34 OFFCURVE",
"365 67 OFFCURVE",
"333 99 CURVE",
"412 128 OFFCURVE",
"454 182 OFFCURVE",
"454 236 CURVE SMOOTH",
"454 296 OFFCURVE",
"422 331 OFFCURVE",
"362 355 CURVE",
"403 383 OFFCURVE",
"421 405 OFFCURVE",
"421 456 CURVE SMOOTH",
"421 528 OFFCURVE",
"357 580 OFFCURVE",
"252 580 CURVE SMOOTH",
"201 580 OFFCURVE",
"148 568 OFFCURVE",
"114 548 CURVE SMOOTH",
"103 541 OFFCURVE",
"97 530 OFFCURVE",
"97 519 CURVE SMOOTH",
"97 502 OFFCURVE",
"109 486 OFFCURVE",
"130 486 CURVE SMOOTH",
"137 486 OFFCURVE",
"144 489 OFFCURVE",
"151 492 CURVE SMOOTH",
"186 504 OFFCURVE",
"220 510 OFFCURVE",
"256 510 CURVE SMOOTH",
"311 510 OFFCURVE",
"342 481 OFFCURVE",
"342 453 CURVE SMOOTH",
"342 407 OFFCURVE",
"311 383 OFFCURVE",
"204 382 CURVE",
"189 378 OFFCURVE",
"182 363 OFFCURVE",
"182 348 CURVE SMOOTH",
"182 329 OFFCURVE",
"192 311 OFFCURVE",
"207 311 CURVE SMOOTH",
"228 311 OFFCURVE",
"249 314 OFFCURVE",
"267 317 CURVE",
"333 313 OFFCURVE",
"371 286 OFFCURVE",
"371 239 CURVE SMOOTH",
"371 199 OFFCURVE",
"342 171 OFFCURVE",
"278 158 CURVE",
"246 187 OFFCURVE",
"216 204 OFFCURVE",
"179 204 CURVE SMOOTH",
"140 204 OFFCURVE",
"115 181 OFFCURVE",
"115 144 CURVE SMOOTH",
"115 105 OFFCURVE",
"151 79 OFFCURVE",
"197 79 CURVE SMOOTH",
"221 79 OFFCURVE",
"241 80 OFFCURVE",
"257 82 CURVE",
"270 69 OFFCURVE",
"284 53 OFFCURVE",
"301 32 CURVE SMOOTH",
"316 14 OFFCURVE",
"340 -17 OFFCURVE",
"364 -48 CURVE SMOOTH",
"369 -55 OFFCURVE",
"378 -58 OFFCURVE",
"386 -58 CURVE SMOOTH"
);
}
);
width = 551;
}
);
unicode = 0969;
category = Letter;
},
{
glyphname = uni096A;
lastChange = "2018-08-07 18:02:59 +0000";
layers = (
{
layerId = UUID0;
paths = (
{
closed = 1;
nodes = (
"366 -10 OFFCURVE",
"421 35 OFFCURVE",
"421 111 CURVE SMOOTH",
"421 181 OFFCURVE",
"374 236 OFFCURVE",
"331 282 CURVE SMOOTH",
"325 288 LINE",
"359 323 LINE SMOOTH",
"455 423 OFFCURVE",
"470 452 OFFCURVE",
"471 496 CURVE SMOOTH",
"471 512 OFFCURVE",
"470 543 OFFCURVE",
"464 561 CURVE SMOOTH",
"459 576 OFFCURVE",
"441 583 OFFCURVE",
"427 583 CURVE SMOOTH",
"405 583 OFFCURVE",
"388 565 OFFCURVE",
"388 549 CURVE SMOOTH",
"388 541 OFFCURVE",
"391 528 OFFCURVE",
"391 515 CURVE SMOOTH",
"391 452 OFFCURVE",
"331 402 OFFCURVE",
"286 353 CURVE SMOOTH",
"275 341 LINE",
"264 354 LINE SMOOTH",
"256 363 OFFCURVE",
"231 390 OFFCURVE",
"214 408 CURVE SMOOTH",
"183 442 OFFCURVE",
"160 474 OFFCURVE",
"160 515 CURVE SMOOTH",
"160 528 OFFCURVE",
"163 541 OFFCURVE",
"163 549 CURVE SMOOTH",
"163 565 OFFCURVE",
"146 583 OFFCURVE",
"124 583 CURVE SMOOTH",
"110 583 OFFCURVE",
"92 576 OFFCURVE",
"87 561 CURVE SMOOTH",
"81 543 OFFCURVE",
"80 512 OFFCURVE",
"80 496 CURVE SMOOTH",
"81 452 OFFCURVE",
"96 423 OFFCURVE",
"192 323 CURVE SMOOTH",
"225 288 LINE",
"220 282 LINE SMOOTH",
"177 236 OFFCURVE",
"130 181 OFFCURVE",
"130 111 CURVE SMOOTH",
"130 34 OFFCURVE",
"185 -10 OFFCURVE",
"273 -10 CURVE SMOOTH"
);
},
{
closed = 1;
nodes = (
"228 59 OFFCURVE",
"210 78 OFFCURVE",
"210 118 CURVE SMOOTH",
"210 148 OFFCURVE",
"236 195 OFFCURVE",
"275 236 CURVE",
"315 195 OFFCURVE",
"341 148 OFFCURVE",
"341 118 CURVE SMOOTH",
"341 77 OFFCURVE",
"322 59 OFFCURVE",
"274 59 CURVE SMOOTH"
);
}
);
width = 551;
}
);
unicode = 096A;
category = Letter;
},
{
glyphname = uni096B;
lastChange = "2018-08-07 18:02:59 +0000";
layers = (
{
layerId = UUID0;
paths = (
{
closed = 1;
nodes = (
"459 -25 OFFCURVE",
"483 -13 OFFCURVE",
"483 9 CURVE SMOOTH",
"483 14 OFFCURVE",
"482 19 OFFCURVE",
"478 25 CURVE SMOOTH",
"438 89 OFFCURVE",
"416 127 OFFCURVE",
"387 200 CURVE",
"426 213 OFFCURVE",
"444 241 OFFCURVE",
"444 277 CURVE SMOOTH",
"444 317 OFFCURVE",
"414 356 OFFCURVE",
"360 356 CURVE SMOOTH",
"317 356 OFFCURVE",
"289 332 OFFCURVE",
"289 292 CURVE SMOOTH",
"289 283 OFFCURVE",
"291 269 OFFCURVE",
"295 257 CURVE",
"284 255 OFFCURVE",
"280 255 OFFCURVE",
"277 255 CURVE SMOOTH",
"178 255 OFFCURVE",
"147 310 OFFCURVE",
"147 396 CURVE SMOOTH",
"147 449 OFFCURVE",
"153 482 OFFCURVE",
"181 537 CURVE SMOOTH",
"183 542 OFFCURVE",
"184 549 OFFCURVE",
"184 553 CURVE SMOOTH",
"184 578 OFFCURVE",
"161 595 OFFCURVE",
"139 595 CURVE SMOOTH",
"127 595 OFFCURVE",
"115 590 OFFCURVE",
"110 580 CURVE SMOOTH",
"85 533 OFFCURVE",
"67 468 OFFCURVE",
"67 407 CURVE SMOOTH",
"67 259 OFFCURVE",
"138 186 OFFCURVE",
"281 186 CURVE SMOOTH",
"296 186 OFFCURVE",
"308 186 OFFCURVE",
"317 187 CURVE",
"333 146 OFFCURVE",
"349 113 OFFCURVE",
"368 77 CURVE SMOOTH",
"381 52 OFFCURVE",
"394 25 OFFCURVE",
"406 -2 CURVE SMOOTH",
"413 -18 OFFCURVE",
"426 -25 OFFCURVE",
"441 -25 CURVE SMOOTH"
);
}
);
width = 551;
}
);
unicode = 096B;
category = Letter;
},
{
glyphname = uni096C;
lastChange = "2018-08-07 18:02:59 +0000";
layers = (
{
layerId = UUID0;
paths = (
{
closed = 1;
nodes = (
"455 -46 OFFCURVE",
"481 -35 OFFCURVE",
"481 -10 CURVE SMOOTH",
"481 -7 OFFCURVE",
"481 -4 OFFCURVE",
"480 -1 CURVE",
"448 45 OFFCURVE",
"433 71 OFFCURVE",
"418 109 CURVE",
"453 120 OFFCURVE",
"467 150 OFFCURVE",
"467 185 CURVE SMOOTH",
"467 221 OFFCURVE",
"443 258 OFFCURVE",
"387 258 CURVE SMOOTH",
"350 258 OFFCURVE",
"319 236 OFFCURVE",
"319 198 CURVE SMOOTH",
"319 191 OFFCURVE",
"320 176 OFFCURVE",
"324 164 CURVE",
"315 163 OFFCURVE",
"306 163 OFFCURVE",
"299 163 CURVE SMOOTH",
"232 163 OFFCURVE",
"179 183 OFFCURVE",
"179 245 CURVE SMOOTH",
"179 300 OFFCURVE",
"222 323 OFFCURVE",
"289 323 CURVE SMOOTH",
"303 323 OFFCURVE",
"315 322 OFFCURVE",
"325 322 CURVE SMOOTH",
"348 322 OFFCURVE",
"356 339 OFFCURVE",
"356 355 CURVE SMOOTH",
"356 371 OFFCURVE",
"350 383 OFFCURVE",
"337 387 CURVE SMOOTH",
"325 391 OFFCURVE",
"307 392 OFFCURVE",
"298 392 CURVE SMOOTH",
"270 392 OFFCURVE",
"246 389 OFFCURVE",
"221 384 CURVE",
"174 397 OFFCURVE",
"151 418 OFFCURVE",
"151 446 CURVE SMOOTH",
"151 493 OFFCURVE",
"187 512 OFFCURVE",
"259 512 CURVE SMOOTH",
"290 512 OFFCURVE",
"313 508 OFFCURVE",
"331 508 CURVE SMOOTH",
"342 508 OFFCURVE",
"359 520 OFFCURVE",
"359 540 CURVE SMOOTH",
"359 552 OFFCURVE",
"351 569 OFFCURVE",
"338 573 CURVE SMOOTH",
"316 580 OFFCURVE",
"287 581 OFFCURVE",
"255 581 CURVE SMOOTH",
"149 581 OFFCURVE",
"70 540 OFFCURVE",
"70 455 CURVE SMOOTH",
"70 400 OFFCURVE",
"95 371 OFFCURVE",
"147 342 CURVE",
"115 317 OFFCURVE",
"99 289 OFFCURVE",
"99 249 CURVE SMOOTH",
"99 159 OFFCURVE",
"171 93 OFFCURVE",
"302 93 CURVE SMOOTH",
"317 93 OFFCURVE",
"333 94 OFFCURVE",
"350 96 CURVE",
"367 55 OFFCURVE",
"388 12 OFFCURVE",
"416 -35 CURVE SMOOTH",
"420 -42 OFFCURVE",
"427 -46 OFFCURVE",
"437 -46 CURVE SMOOTH"
);
}
);
width = 551;
}
);
unicode = 096C;
category = Letter;
},
{
glyphname = uni096D;
lastChange = "2018-08-07 18:02:59 +0000";
layers = (
{
layerId = UUID0;
paths = (
{
closed = 1;
nodes = (
"440 39 OFFCURVE",
"512 106 OFFCURVE",
"512 260 CURVE SMOOTH",
"512 412 OFFCURVE",
"443 524 OFFCURVE",
"321 524 CURVE SMOOTH",
"245 524 OFFCURVE",
"197 482 OFFCURVE",
"197 409 CURVE SMOOTH",
"197 370 OFFCURVE",
"210 344 OFFCURVE",
"233 319 CURVE SMOOTH",
"265 283 OFFCURVE",
"337 267 OFFCURVE",
"359 267 CURVE SMOOTH",
"382 267 OFFCURVE",
"396 288 OFFCURVE",
"396 305 CURVE SMOOTH",
"396 318 OFFCURVE",
"383 333 OFFCURVE",
"369 334 CURVE SMOOTH",
"312 340 OFFCURVE",
"269 364 OFFCURVE",
"269 408 CURVE SMOOTH",
"269 439 OFFCURVE",
"290 460 OFFCURVE",
"322 460 CURVE SMOOTH",
"383 460 OFFCURVE",
"432 376 OFFCURVE",
"432 265 CURVE SMOOTH",
"432 166 OFFCURVE",
"409 113 OFFCURVE",
"330 113 CURVE SMOOTH",
"279 113 OFFCURVE",
"236 136 OFFCURVE",
"197 200 CURVE SMOOTH",
"158 263 OFFCURVE",
"129 395 OFFCURVE",
"114 559 CURVE SMOOTH",
"113 573 OFFCURVE",
"95 582 OFFCURVE",
"80 582 CURVE SMOOTH",
"58 582 OFFCURVE",
"40 574 OFFCURVE",
"40 547 CURVE SMOOTH",
"40 530 OFFCURVE",
"51 456 OFFCURVE",
"57 418 CURVE SMOOTH",
"103 134 OFFCURVE",
"182 39 OFFCURVE",
"334 39 CURVE SMOOTH"
);
}
);
width = 551;
}
);
unicode = 096D;
category = Letter;
},
{
glyphname = uni096E;
lastChange = "2018-08-07 18:02:59 +0000";
layers = (
{
layerId = UUID0;
paths = (
{
closed = 1;
nodes = (
"358 -12 OFFCURVE",
"410 3 OFFCURVE",
"466 35 CURVE SMOOTH",
"478 42 OFFCURVE",
"481 50 OFFCURVE",
"481 61 CURVE SMOOTH",
"481 84 OFFCURVE",
"466 108 OFFCURVE",
"443 108 CURVE SMOOTH",
"437 108 OFFCURVE",
"430 106 OFFCURVE",
"423 102 CURVE SMOOTH",
"388 83 OFFCURVE",
"345 61 OFFCURVE",
"272 61 CURVE SMOOTH",
"205 61 OFFCURVE",
"154 94 OFFCURVE",
"154 158 CURVE SMOOTH",
"154 210 OFFCURVE",
"186 259 OFFCURVE",
"265 354 CURVE SMOOTH",
"392 506 LINE SMOOTH",
"406 522 OFFCURVE",
"412 529 OFFCURVE",
"412 541 CURVE SMOOTH",
"412 565 OFFCURVE",
"391 585 OFFCURVE",
"367 585 CURVE SMOOTH",
"355 585 OFFCURVE",
"342 578 OFFCURVE",
"330 563 CURVE SMOOTH",
"180 379 LINE SMOOTH",
"103 284 OFFCURVE",
"72 226 OFFCURVE",
"72 160 CURVE SMOOTH",
"72 49 OFFCURVE",
"165 -12 OFFCURVE",
"268 -12 CURVE SMOOTH"
);
}
);
width = 551;
}
);
unicode = 096E;
category = Letter;
},
{
glyphname = uni096F;
lastChange = "2018-08-07 18:02:59 +0000";
layers = (
{
layerId = UUID0;
paths = (
{
closed = 1;
nodes = (
"405 -78 OFFCURVE",
"417 -75 OFFCURVE",
"424 -66 CURVE SMOOTH",
"464 -20 OFFCURVE",
"471 12 OFFCURVE",
"471 47 CURVE SMOOTH",
"471 98 OFFCURVE",
"447 135 OFFCURVE",
"402 171 CURVE SMOOTH",
"320 237 LINE SMOOTH",
"305 249 OFFCURVE",
"291 260 OFFCURVE",
"276 270 CURVE",
"347 283 OFFCURVE",
"396 340 OFFCURVE",
"396 428 CURVE SMOOTH",
"396 526 OFFCURVE",
"335 580 OFFCURVE",
"238 580 CURVE SMOOTH",
"145 580 OFFCURVE",
"81 523 OFFCURVE",
"81 433 CURVE SMOOTH",
"81 372 OFFCURVE",
"95 327 OFFCURVE",
"157 275 CURVE SMOOTH",
"348 116 LINE SMOOTH",
"380 89 OFFCURVE",
"388 74 OFFCURVE",
"388 47 CURVE SMOOTH",
"388 22 OFFCURVE",
"379 4 OFFCURVE",
"364 -15 CURVE SMOOTH",
"358 -23 OFFCURVE",
"354 -32 OFFCURVE",
"354 -39 CURVE SMOOTH",
"354 -62 OFFCURVE",
"374 -78 OFFCURVE",
"395 -78 CURVE SMOOTH"
);
},
{
closed = 1;
nodes = (
"191 334 OFFCURVE",
"161 371 OFFCURVE",
"161 427 CURVE SMOOTH",
"161 475 OFFCURVE",
"188 509 OFFCURVE",
"240 509 CURVE SMOOTH",
"279 509 OFFCURVE",
"316 485 OFFCURVE",
"316 430 CURVE SMOOTH",
"316 373 OFFCURVE",
"281 334 OFFCURVE",
"237 334 CURVE SMOOTH"
);
}
);
width = 551;
}
);
unicode = 096F;
category = Letter;
},
{
glyphname = uni0964;
lastChange = "2018-08-07 18:02:59 +0000";
layers = (
{
layerId = UUID0;
paths = (
{
closed = 1;
nodes = (
"159 0 LINE",
"159 622 LINE",
"78 622 LINE",
"78 0 LINE"
);
}
);
width = 237;
}
);
unicode = 0964;
category = Letter;
},
{
glyphname = uni0965;
lastChange = "2018-08-07 18:02:59 +0000";
layers = (
{
layerId = UUID0;
paths = (
{
closed = 1;
nodes = (
"379 0 LINE",
"379 622 LINE",
"298 622 LINE",
"298 0 LINE"
);
},
{
closed = 1;
nodes = (
"159 0 LINE",
"159 622 LINE",
"78 622 LINE",
"78 0 LINE"
);
}
